<svg width="96" height="15" viewBox="0 0 96 15" fill="none" xmlns="http://www.w3.org/2000/svg">
<path d="M2.70553 13.0008C2.50245 13.0008 2.32837 12.9331 2.18331 12.7978C2.04792 12.6528 1.98022 12.4787 1.98022 12.2757C1.98022 12.0727 2.04792 11.9036 2.18331 11.7682C2.32837 11.6232 2.50245 11.5507 2.70553 11.5507H4.15614C4.35923 11.5507 4.52847 11.6232 4.66386 11.7682C4.80892 11.9036 4.88145 12.0727 4.88145 12.2757C4.88145 12.4787 4.80892 12.6528 4.66386 12.7978C4.52847 12.9331 4.35923 13.0008 4.15614 13.0008H2.70553ZM1.98022 10.6807C1.98022 10.4776 2.04792 10.3085 2.18331 10.1731C2.32837 10.0281 2.50245 9.95562 2.70553 9.95562H4.15614C4.35923 9.95562 4.52847 10.0281 4.66386 10.1731C4.80892 10.3085 4.88145 10.4776 4.88145 10.6807C4.88145 10.8837 4.80892 11.0577 4.66386 11.2027C4.52847 11.338 4.35923 11.4057 4.15614 11.4057H2.70553C2.50245 11.4057 2.32837 11.338 2.18331 11.2027C2.04792 11.0577 1.98022 10.8837 1.98022 10.6807ZM1.98022 9.08558C1.98022 8.88257 2.04792 8.71339 2.18331 8.57805C2.32837 8.43305 2.50245 8.36054 2.70553 8.36054H4.15614C4.35923 8.36054 4.52847 8.43305 4.66386 8.57805C4.80892 8.71339 4.88145 8.88257 4.88145 9.08558C4.88145 9.28859 4.80892 9.4626 4.66386 9.6076C4.52847 9.74294 4.35923 9.81062 4.15614 9.81062H2.70553C2.50245 9.81062 2.32837 9.74294 2.18331 9.6076C2.04792 9.4626 1.98022 9.28859 1.98022 9.08558ZM1.98022 7.4905C1.98022 7.28749 2.04792 7.11831 2.18331 6.98297C2.32837 6.83797 2.50245 6.76546 2.70553 6.76546H4.15614C4.35923 6.76546 4.52847 6.83797 4.66386 6.98297C4.80892 7.11831 4.88145 7.28749 4.88145 7.4905C4.88145 7.69351 4.80892 7.86752 4.66386 8.01253C4.52847 8.14786 4.35923 8.21554 4.15614 8.21554H2.70553C2.50245 8.21554 2.32837 8.14786 2.18331 8.01253C2.04792 7.86752 1.98022 7.69351 1.98022 7.4905ZM1.98022 5.89542C1.98022 5.69241 2.04792 5.52323 2.18331 5.38789C2.32837 5.24289 2.50245 5.17038 2.70553 5.17038H4.15614C4.35923 5.17038 4.52847 5.24289 4.66386 5.38789C4.80892 5.52323 4.88145 5.69241 4.88145 5.89542C4.88145 6.09843 4.80892 6.27244 4.66386 6.41745C4.52847 6.55279 4.35923 6.62046 4.15614 6.62046H2.70553C2.50245 6.62046 2.32837 6.55279 2.18331 6.41745C2.04792 6.27244 1.98022 6.09843 1.98022 5.89542ZM1.98022 4.30034C1.98022 4.09733 2.04792 3.92815 2.18331 3.79281C2.32837 3.64781 2.50245 3.5753 2.70553 3.5753H4.15614C4.35923 3.5753 4.52847 3.64781 4.66386 3.79281C4.80892 3.92815 4.88145 4.09733 4.88145 4.30034C4.88145 4.50335 4.80892 4.67736 4.66386 4.82237C4.52847 4.95771 4.35923 5.02538 4.15614 5.02538H2.70553C2.50245 5.02538 2.32837 4.95771 2.18331 4.82237C2.04792 4.67736 1.98022 4.50335 1.98022 4.30034ZM2.70553 2.70526C2.70553 2.50225 2.77323 2.33308 2.90862 2.19774C3.05368 2.05273 3.22775 1.98022 3.43084 1.98022H13.5851C13.7882 1.98022 13.9574 2.05273 14.0928 2.19774C14.2379 2.33308 14.3104 2.50225 14.3104 2.70526C14.3104 2.90827 14.2379 3.08228 14.0928 3.22729C13.9574 3.36263 13.7882 3.4303 13.5851 3.4303H3.43084C3.22775 3.4303 3.05368 3.36263 2.90862 3.22729C2.77323 3.08228 2.70553 2.90827 2.70553 2.70526ZM7.04286 4.27134C7.04286 4.06833 7.11056 3.89915 7.24595 3.76381C7.39101 3.61881 7.56508 3.5463 7.76817 3.5463H9.21878C9.42187 3.5463 9.5911 3.61881 9.72649 3.76381C9.87156 3.89915 9.94409 4.06833 9.94409 4.27134C9.94409 4.47435 9.87156 4.64836 9.72649 4.79336C9.5911 4.9287 9.42187 4.99637 9.21878 4.99637H7.76817C7.56508 4.99637 7.39101 4.9287 7.24595 4.79336C7.11056 4.64836 7.04286 4.47435 7.04286 4.27134ZM7.05737 12.2757C7.05737 12.0727 7.12506 11.9036 7.26045 11.7682C7.40552 11.6232 7.57959 11.5507 7.78267 11.5507H9.23329C9.43637 11.5507 9.60561 11.6232 9.741 11.7682C9.88606 11.9036 9.95859 12.0727 9.95859 12.2757C9.95859 12.4787 9.88606 12.6528 9.741 12.7978C9.60561 12.9331 9.43637 13.0008 9.23329 13.0008H7.78267C7.57959 13.0008 7.40552 12.9331 7.26045 12.7978C7.12506 12.6528 7.05737 12.4787 7.05737 12.2757ZM7.05737 10.6807C7.05737 10.4776 7.12506 10.3085 7.26045 10.1731C7.40552 10.0281 7.57959 9.95562 7.78267 9.95562H9.23329C9.43637 9.95562 9.60561 10.0281 9.741 10.1731C9.88606 10.3085 9.95859 10.4776 9.95859 10.6807C9.95859 10.8837 9.88606 11.0577 9.741 11.2027C9.60561 11.338 9.43637 11.4057 9.23329 11.4057H7.78267C7.57959 11.4057 7.40552 11.338 7.26045 11.2027C7.12506 11.0577 7.05737 10.8837 7.05737 10.6807ZM7.05737 9.08558C7.05737 8.88257 7.12506 8.71339 7.26045 8.57805C7.40552 8.43305 7.57959 8.36054 7.78267 8.36054H9.23329C9.43637 8.36054 9.60561 8.43305 9.741 8.57805C9.88606 8.71339 9.95859 8.88257 9.95859 9.08558C9.95859 9.28859 9.88606 9.4626 9.741 9.6076C9.60561 9.74294 9.43637 9.81062 9.23329 9.81062H7.78267C7.57959 9.81062 7.40552 9.74294 7.26045 9.6076C7.12506 9.4626 7.05737 9.28859 7.05737 9.08558ZM7.05737 7.4905C7.05737 7.28749 7.12506 7.11831 7.26045 6.98297C7.40552 6.83797 7.57959 6.76546 7.78267 6.76546H9.23329C9.43637 6.76546 9.60561 6.83797 9.741 6.98297C9.88606 7.11831 9.95859 7.28749 9.95859 7.4905C9.95859 7.69351 9.88606 7.86752 9.741 8.01253C9.60561 8.14786 9.43637 8.21554 9.23329 8.21554H7.78267C7.57959 8.21554 7.40552 8.14786 7.26045 8.01253C7.12506 7.86752 7.05737 7.69351 7.05737 7.4905ZM7.05737 5.89542C7.05737 5.69241 7.12506 5.52323 7.26045 5.38789C7.40552 5.24289 7.57959 5.17038 7.78267 5.17038H9.23329C9.43637 5.17038 9.60561 5.24289 9.741 5.38789C9.88606 5.52323 9.95859 5.69241 9.95859 5.89542C9.95859 6.09843 9.88606 6.27244 9.741 6.41745C9.60561 6.55279 9.43637 6.62046 9.23329 6.62046H7.78267C7.57959 6.62046 7.40552 6.55279 7.26045 6.41745C7.12506 6.27244 7.05737 6.09843 7.05737 5.89542ZM12.1345 12.2757C12.1345 12.0727 12.2022 11.9036 12.3376 11.7682C12.4827 11.6232 12.6567 11.5507 12.8598 11.5507H14.3104C14.5135 11.5507 14.6828 11.6232 14.8181 11.7682C14.9632 11.9036 15.0357 12.0727 15.0357 12.2757C15.0357 12.4787 14.9632 12.6528 14.8181 12.7978C14.6828 12.9331 14.5135 13.0008 14.3104 13.0008H12.8598C12.6567 13.0008 12.4827 12.9331 12.3376 12.7978C12.2022 12.6528 12.1345 12.4787 12.1345 12.2757ZM12.1345 10.6807C12.1345 10.4776 12.2022 10.3085 12.3376 10.1731C12.4827 10.0281 12.6567 9.95562 12.8598 9.95562H14.3104C14.5135 9.95562 14.6828 10.0281 14.8181 10.1731C14.9632 10.3085 15.0357 10.4776 15.0357 10.6807C15.0357 10.8837 14.9632 11.0577 14.8181 11.2027C14.6828 11.338 14.5135 11.4057 14.3104 11.4057H12.8598C12.6567 11.4057 12.4827 11.338 12.3376 11.2027C12.2022 11.0577 12.1345 10.8837 12.1345 10.6807ZM12.1345 9.08558C12.1345 8.88257 12.2022 8.71339 12.3376 8.57805C12.4827 8.43305 12.6567 8.36054 12.8598 8.36054H14.3104C14.5135 8.36054 14.6828 8.43305 14.8181 8.57805C14.9632 8.71339 15.0357 8.88257 15.0357 9.08558C15.0357 9.28859 14.9632 9.4626 14.8181 9.6076C14.6828 9.74294 14.5135 9.81062 14.3104 9.81062H12.8598C12.6567 9.81062 12.4827 9.74294 12.3376 9.6076C12.2022 9.4626 12.1345 9.28859 12.1345 9.08558ZM12.1345 7.4905C12.1345 7.28749 12.2022 7.11831 12.3376 6.98297C12.4827 6.83797 12.6567 6.76546 12.8598 6.76546H14.3104C14.5135 6.76546 14.6828 6.83797 14.8181 6.98297C14.9632 7.11831 15.0357 7.28749 15.0357 7.4905C15.0357 7.69351 14.9632 7.86752 14.8181 8.01253C14.6828 8.14786 14.5135 8.21554 14.3104 8.21554H12.8598C12.6567 8.21554 12.4827 8.14786 12.3376 8.01253C12.2022 7.86752 12.1345 7.69351 12.1345 7.4905ZM12.1345 5.89542C12.1345 5.69241 12.2022 5.52323 12.3376 5.38789C12.4827 5.24289 12.6567 5.17038 12.8598 5.17038H14.3104C14.5135 5.17038 14.6828 5.24289 14.8181 5.38789C14.9632 5.52323 15.0357 5.69241 15.0357 5.89542C15.0357 6.09843 14.9632 6.27244 14.8181 6.41745C14.6828 6.55279 14.5135 6.62046 14.3104 6.62046H12.8598C12.6567 6.62046 12.4827 6.55279 12.3376 6.41745C12.2022 6.27244 12.1345 6.09843 12.1345 5.89542ZM12.1345 4.30034C12.1345 4.09733 12.2022 3.92815 12.3376 3.79281C12.4827 3.64781 12.6567 3.5753 12.8598 3.5753H14.3104C14.5135 3.5753 14.6828 3.64781 14.8181 3.79281C14.9632 3.92815 15.0357 4.09733 15.0357 4.30034C15.0357 4.50335 14.9632 4.67736 14.8181 4.82237C14.6828 4.95771 14.5135 5.02538 14.3104 5.02538H12.8598C12.6567 5.02538 12.4827 4.95771 12.3376 4.82237C12.2022 4.67736 12.1345 4.50335 12.1345 4.30034Z" fill="white"/>
<path d="M22.2831 1.98022C22.4862 1.98022 22.6555 2.05273 22.7908 2.19774C22.9359 2.33308 23.0084 2.50225 23.0084 2.70526C23.0084 2.90827 22.9359 3.08228 22.7908 3.22729C22.6555 3.36263 22.4862 3.4303 22.2831 3.4303H17.9313C17.7282 3.4303 17.5541 3.36263 17.4091 3.22729C17.2737 3.08228 17.206 2.90827 17.206 2.70526C17.206 2.50225 17.2737 2.33308 17.4091 2.19774C17.5541 2.05273 17.7282 1.98022 17.9313 1.98022H22.2831ZM17.206 12.2757C17.206 12.0727 17.2737 11.9036 17.4091 11.7682C17.5541 11.6232 17.7282 11.5507 17.9313 11.5507H22.2831C22.4862 11.5507 22.6555 11.6232 22.7908 11.7682C22.9359 11.9036 23.0084 12.0727 23.0084 12.2757C23.0084 12.4787 22.9359 12.6528 22.7908 12.7978C22.6555 12.9331 22.4862 13.0008 22.2831 13.0008H17.9313C17.7282 13.0008 17.5541 12.9331 17.4091 12.7978C17.2737 12.6528 17.206 12.4787 17.206 12.2757ZM18.6566 10.6807C18.6566 10.4776 18.7243 10.3085 18.8597 10.1731C19.0047 10.0281 19.1788 9.95562 19.3819 9.95562H20.8325C21.0356 9.95562 21.2048 10.0281 21.3402 10.1731C21.4853 10.3085 21.5578 10.4776 21.5578 10.6807C21.5578 10.8837 21.4853 11.0577 21.3402 11.2027C21.2048 11.338 21.0356 11.4057 20.8325 11.4057H19.3819C19.1788 11.4057 19.0047 11.338 18.8597 11.2027C18.7243 11.0577 18.6566 10.8837 18.6566 10.6807ZM18.6566 9.08558C18.6566 8.88257 18.7243 8.71339 18.8597 8.57805C19.0047 8.43305 19.1788 8.36054 19.3819 8.36054H20.8325C21.0356 8.36054 21.2048 8.43305 21.3402 8.57805C21.4853 8.71339 21.5578 8.88257 21.5578 9.08558C21.5578 9.28859 21.4853 9.4626 21.3402 9.6076C21.2048 9.74294 21.0356 9.81062 20.8325 9.81062H19.3819C19.1788 9.81062 19.0047 9.74294 18.8597 9.6076C18.7243 9.4626 18.6566 9.28859 18.6566 9.08558ZM18.6566 7.4905C18.6566 7.28749 18.7243 7.11831 18.8597 6.98297C19.0047 6.83797 19.1788 6.76546 19.3819 6.76546H20.8325C21.0356 6.76546 21.2048 6.83797 21.3402 6.98297C21.4853 7.11831 21.5578 7.28749 21.5578 7.4905C21.5578 7.69351 21.4853 7.86752 21.3402 8.01253C21.2048 8.14786 21.0356 8.21554 20.8325 8.21554H19.3819C19.1788 8.21554 19.0047 8.14786 18.8597 8.01253C18.7243 7.86752 18.6566 7.69351 18.6566 7.4905ZM18.6566 5.89542C18.6566 5.69241 18.7243 5.52323 18.8597 5.38789C19.0047 5.24289 19.1788 5.17038 19.3819 5.17038H20.8325C21.0356 5.17038 21.2048 5.24289 21.3402 5.38789C21.4853 5.52323 21.5578 5.69241 21.5578 5.89542C21.5578 6.09843 21.4853 6.27244 21.3402 6.41745C21.2048 6.55279 21.0356 6.62046 20.8325 6.62046H19.3819C19.1788 6.62046 19.0047 6.55279 18.8597 6.41745C18.7243 6.27244 18.6566 6.09843 18.6566 5.89542ZM18.6566 4.30034C18.6566 4.09733 18.7243 3.92815 18.8597 3.79281C19.0047 3.64781 19.1788 3.5753 19.3819 3.5753H20.8325C21.0356 3.5753 21.2048 3.64781 21.3402 3.79281C21.4853 3.92815 21.5578 4.09733 21.5578 4.30034C21.5578 4.50335 21.4853 4.67736 21.3402 4.82237C21.2048 4.95771 21.0356 5.02538 20.8325 5.02538H19.3819C19.1788 5.02538 19.0047 4.95771 18.8597 4.82237C18.7243 4.67736 18.6566 4.50335 18.6566 4.30034Z" fill="white"/>
<path d="M30.2615 11.5507C30.4646 11.5507 30.6338 11.6232 30.7692 11.7682C30.9143 11.9036 30.9868 12.0727 30.9868 12.2757C30.9868 12.4787 30.9143 12.6528 30.7692 12.7978C30.6338 12.9331 30.4646 13.0008 30.2615 13.0008H25.9097C25.7066 13.0008 25.5325 12.9331 25.3874 12.7978C25.2521 12.6528 25.1844 12.4787 25.1844 12.2757C25.1844 12.0727 25.2521 11.9036 25.3874 11.7682C25.5325 11.6232 25.7066 11.5507 25.9097 11.5507H30.2615ZM25.1844 10.6807C25.1844 10.4776 25.2521 10.3085 25.3874 10.1731C25.5325 10.0281 25.7066 9.95562 25.9097 9.95562H27.3603C27.5634 9.95562 27.7326 10.0281 27.868 10.1731C28.0131 10.3085 28.0856 10.4776 28.0856 10.6807C28.0856 10.8837 28.0131 11.0577 27.868 11.2027C27.7326 11.338 27.5634 11.4057 27.3603 11.4057H25.9097C25.7066 11.4057 25.5325 11.338 25.3874 11.2027C25.2521 11.0577 25.1844 10.8837 25.1844 10.6807ZM25.1844 9.08558C25.1844 8.88257 25.2521 8.71339 25.3874 8.57805C25.5325 8.43305 25.7066 8.36054 25.9097 8.36054H27.3603C27.5634 8.36054 27.7326 8.43305 27.868 8.57805C28.0131 8.71339 28.0856 8.88257 28.0856 9.08558C28.0856 9.28859 28.0131 9.4626 27.868 9.6076C27.7326 9.74294 27.5634 9.81062 27.3603 9.81062H25.9097C25.7066 9.81062 25.5325 9.74294 25.3874 9.6076C25.2521 9.4626 25.1844 9.28859 25.1844 9.08558ZM25.1844 7.4905C25.1844 7.28749 25.2521 7.11831 25.3874 6.98297C25.5325 6.83797 25.7066 6.76546 25.9097 6.76546H27.3458C27.5489 6.76546 27.7181 6.83797 27.8535 6.98297C27.9985 7.11831 28.0711 7.28749 28.0711 7.4905C28.0711 7.69351 27.9985 7.86752 27.8535 8.01253C27.7181 8.14786 27.5489 8.21554 27.3458 8.21554H25.9097C25.7066 8.21554 25.5325 8.14786 25.3874 8.01253C25.2521 7.86752 25.1844 7.69351 25.1844 7.4905ZM25.1844 5.89542C25.1844 5.69241 25.2521 5.52323 25.3874 5.38789C25.5325 5.24289 25.7066 5.17038 25.9097 5.17038H27.3603C27.5634 5.17038 27.7326 5.24289 27.868 5.38789C28.0131 5.52323 28.0856 5.69241 28.0856 5.89542C28.0856 6.09843 28.0131 6.27244 27.868 6.41745C27.7326 6.55279 27.5634 6.62046 27.3603 6.62046H25.9097C25.7066 6.62046 25.5325 6.55279 25.3874 6.41745C25.2521 6.27244 25.1844 6.09843 25.1844 5.89542ZM25.1844 4.30034C25.1844 4.09733 25.2521 3.92815 25.3874 3.79281C25.5325 3.64781 25.7066 3.5753 25.9097 3.5753H27.3603C27.5634 3.5753 27.7326 3.64781 27.868 3.79281C28.0131 3.92815 28.0856 4.09733 28.0856 4.30034C28.0856 4.50335 28.0131 4.67736 27.868 4.82237C27.7326 4.95771 27.5634 5.02538 27.3603 5.02538H25.9097C25.7066 5.02538 25.5325 4.95771 25.3874 4.82237C25.2521 4.67736 25.1844 4.50335 25.1844 4.30034ZM25.1844 2.70526C25.1844 2.50225 25.2521 2.33308 25.3874 2.19774C25.5325 2.05273 25.7066 1.98022 25.9097 1.98022H27.3603C27.5634 1.98022 27.7326 2.05273 27.868 2.19774C28.0131 2.33308 28.0856 2.50225 28.0856 2.70526C28.0856 2.90827 28.0131 3.08228 27.868 3.22729C27.7326 3.36263 27.5634 3.4303 27.3603 3.4303H25.9097C25.7066 3.4303 25.5325 3.36263 25.3874 3.22729C25.2521 3.08228 25.1844 2.90827 25.1844 2.70526Z" fill="white"/>
<path d="M38.6227 1.98022C38.8258 1.98022 38.995 2.05273 39.1304 2.19774C39.2755 2.33308 39.348 2.50225 39.348 2.70526C39.348 2.90827 39.2755 3.08228 39.1304 3.22729C38.995 3.36263 38.8258 3.4303 38.6227 3.4303H33.5455C33.3425 3.4303 33.1684 3.36263 33.0233 3.22729C32.8879 3.08228 32.8202 2.90827 32.8202 2.70526C32.8202 2.50225 32.8879 2.33308 33.0233 2.19774C33.1684 2.05273 33.3425 1.98022 33.5455 1.98022H38.6227ZM32.8057 10.6807C32.8057 10.4776 32.8734 10.3085 33.0088 10.1731C33.1539 10.0281 33.328 9.95562 33.531 9.95562H34.9817C35.1847 9.95562 35.354 10.0281 35.4894 10.1731C35.6344 10.3085 35.707 10.4776 35.707 10.6807C35.707 10.8837 35.6344 11.0577 35.4894 11.2027C35.354 11.338 35.1847 11.4057 34.9817 11.4057H33.531C33.328 11.4057 33.1539 11.338 33.0088 11.2027C32.8734 11.0577 32.8057 10.8837 32.8057 10.6807ZM32.8057 9.08558C32.8057 8.88257 32.8734 8.71339 33.0088 8.57805C33.1539 8.43305 33.328 8.36054 33.531 8.36054H34.9817C35.1847 8.36054 35.354 8.43305 35.4894 8.57805C35.6344 8.71339 35.707 8.88257 35.707 9.08558C35.707 9.28859 35.6344 9.4626 35.4894 9.6076C35.354 9.74294 35.1847 9.81062 34.9817 9.81062H33.531C33.328 9.81062 33.1539 9.74294 33.0088 9.6076C32.8734 9.4626 32.8057 9.28859 32.8057 9.08558ZM32.8057 7.4905C32.8057 7.28749 32.8734 7.11831 33.0088 6.98297C33.1539 6.83797 33.328 6.76546 33.531 6.76546H34.9817C35.1847 6.76546 35.354 6.83797 35.4894 6.98297C35.6344 7.11831 35.707 7.28749 35.707 7.4905C35.707 7.69351 35.6344 7.86752 35.4894 8.01253C35.354 8.14786 35.1847 8.21554 34.9817 8.21554H33.531C33.328 8.21554 33.1539 8.14786 33.0088 8.01253C32.8734 7.86752 32.8057 7.69351 32.8057 7.4905ZM32.8057 5.89542C32.8057 5.69241 32.8734 5.52323 33.0088 5.38789C33.1539 5.24289 33.328 5.17038 33.531 5.17038H34.9817C35.1847 5.17038 35.354 5.24289 35.4894 5.38789C35.6344 5.52323 35.707 5.69241 35.707 5.89542C35.707 6.09843 35.6344 6.27244 35.4894 6.41745C35.354 6.55279 35.1847 6.62046 34.9817 6.62046H33.531C33.328 6.62046 33.1539 6.55279 33.0088 6.41745C32.8734 6.27244 32.8057 6.09843 32.8057 5.89542ZM32.8057 4.30034C32.8057 4.09733 32.8734 3.92815 33.0088 3.79281C33.1539 3.64781 33.328 3.5753 33.531 3.5753H34.9817C35.1847 3.5753 35.354 3.64781 35.4894 3.79281C35.6344 3.92815 35.707 4.09733 35.707 4.30034C35.707 4.50335 35.6344 4.67736 35.4894 4.82237C35.354 4.95771 35.1847 5.02538 34.9817 5.02538H33.531C33.328 5.02538 33.1539 4.95771 33.0088 4.82237C32.8734 4.67736 32.8057 4.50335 32.8057 4.30034ZM32.8202 12.2757C32.8202 12.0727 32.8879 11.9036 33.0233 11.7682C33.1684 11.6232 33.3425 11.5507 33.5455 11.5507H38.6227C38.8258 11.5507 38.995 11.6232 39.1304 11.7682C39.2755 11.9036 39.348 12.0727 39.348 12.2757C39.348 12.4787 39.2755 12.6528 39.1304 12.7978C38.995 12.9331 38.8258 13.0008 38.6227 13.0008H33.5455C33.3425 13.0008 33.1684 12.9331 33.0233 12.7978C32.8879 12.6528 32.8202 12.4787 32.8202 12.2757ZM37.8974 10.6807C37.8974 10.4776 37.9651 10.3085 38.1005 10.1731C38.2455 10.0281 38.4196 9.95562 38.6227 9.95562H40.0733C40.2764 9.95562 40.4456 10.0281 40.581 10.1731C40.7261 10.3085 40.7986 10.4776 40.7986 10.6807C40.7986 10.8837 40.7261 11.0577 40.581 11.2027C40.4456 11.338 40.2764 11.4057 40.0733 11.4057H38.6227C38.4196 11.4057 38.2455 11.338 38.1005 11.2027C37.9651 11.0577 37.8974 10.8837 37.8974 10.6807ZM37.8974 4.30034C37.8974 4.09733 37.9651 3.92815 38.1005 3.79281C38.2455 3.64781 38.4196 3.5753 38.6227 3.5753H40.0733C40.2764 3.5753 40.4456 3.64781 40.581 3.79281C40.7261 3.92815 40.7986 4.09733 40.7986 4.30034C40.7986 4.50335 40.7261 4.67736 40.581 4.82237C40.4456 4.95771 40.2764 5.02538 40.0733 5.02538H38.6227C38.4196 5.02538 38.2455 4.95771 38.1005 4.82237C37.9651 4.67736 37.8974 4.50335 37.8974 4.30034ZM39.348 9.08558C39.348 8.88257 39.4157 8.71339 39.5511 8.57805C39.6961 8.43305 39.8702 8.36054 40.0733 8.36054H41.5239C41.727 8.36054 41.8962 8.43305 42.0316 8.57805C42.1767 8.71339 42.2492 8.88257 42.2492 9.08558C42.2492 9.28859 42.1767 9.4626 42.0316 9.6076C41.8962 9.74294 41.727 9.81062 41.5239 9.81062H40.0733C39.8702 9.81062 39.6961 9.74294 39.5511 9.6076C39.4157 9.4626 39.348 9.28859 39.348 9.08558ZM39.348 7.4905C39.348 7.28749 39.4157 7.11831 39.5511 6.98297C39.6961 6.83797 39.8702 6.76546 40.0733 6.76546H41.5239C41.727 6.76546 41.8962 6.83797 42.0316 6.98297C42.1767 7.11831 42.2492 7.28749 42.2492 7.4905C42.2492 7.69351 42.1767 7.86752 42.0316 8.01253C41.8962 8.14786 41.727 8.21554 41.5239 8.21554H40.0733C39.8702 8.21554 39.6961 8.14786 39.5511 8.01253C39.4157 7.86752 39.348 7.69351 39.348 7.4905ZM39.348 5.89542C39.348 5.69241 39.4157 5.52323 39.5511 5.38789C39.6961 5.24289 39.8702 5.17038 40.0733 5.17038H41.5239C41.727 5.17038 41.8962 5.24289 42.0316 5.38789C42.1767 5.52323 42.2492 5.69241 42.2492 5.89542C42.2492 6.09843 42.1767 6.27244 42.0316 6.41745C41.8962 6.55279 41.727 6.62046 41.5239 6.62046H40.0733C39.8702 6.62046 39.6961 6.55279 39.5511 6.41745C39.4157 6.27244 39.348 6.09843 39.348 5.89542Z" fill="white"/>
<path d="M50.9497 1.98022C51.1528 1.98022 51.322 2.05273 51.4574 2.19774C51.6025 2.33308 51.675 2.50225 51.675 2.70526C51.675 2.90827 51.6025 3.08228 51.4574 3.22729C51.322 3.36263 51.1528 3.4303 50.9497 3.4303H45.1473C44.9442 3.4303 44.7701 3.36263 44.6251 3.22729C44.4897 3.08228 44.422 2.90827 44.422 2.70526C44.422 2.50225 44.4897 2.33308 44.6251 2.19774C44.7701 2.05273 44.9442 1.98022 45.1473 1.98022H50.9497ZM44.422 12.2757C44.422 12.0727 44.4897 11.9036 44.6251 11.7682C44.7701 11.6232 44.9442 11.5507 45.1473 11.5507H50.9497C51.1528 11.5507 51.322 11.6232 51.4574 11.7682C51.6025 11.9036 51.675 12.0727 51.675 12.2757C51.675 12.4787 51.6025 12.6528 51.4574 12.7978C51.322 12.9331 51.1528 13.0008 50.9497 13.0008H45.1473C44.9442 13.0008 44.7701 12.9331 44.6251 12.7978C44.4897 12.6528 44.422 12.4787 44.422 12.2757ZM44.422 10.6807C44.422 10.4776 44.4897 10.3085 44.6251 10.1731C44.7701 10.0281 44.9442 9.95562 45.1473 9.95562H46.5979C46.801 9.95562 46.9702 10.0281 47.1056 10.1731C47.2507 10.3085 47.3232 10.4776 47.3232 10.6807C47.3232 10.8837 47.2507 11.0577 47.1056 11.2027C46.9702 11.338 46.801 11.4057 46.5979 11.4057H45.1473C44.9442 11.4057 44.7701 11.338 44.6251 11.2027C44.4897 11.0577 44.422 10.8837 44.422 10.6807ZM44.422 9.08558C44.422 8.88257 44.4897 8.71339 44.6251 8.57805C44.7701 8.43305 44.9442 8.36054 45.1473 8.36054H46.5979C46.801 8.36054 46.9702 8.43305 47.1056 8.57805C47.2507 8.71339 47.3232 8.88257 47.3232 9.08558C47.3232 9.28859 47.2507 9.4626 47.1056 9.6076C46.9702 9.74294 46.801 9.81062 46.5979 9.81062H45.1473C44.9442 9.81062 44.7701 9.74294 44.6251 9.6076C44.4897 9.4626 44.422 9.28859 44.422 9.08558ZM44.422 7.4905C44.422 7.28749 44.4897 7.11831 44.6251 6.98297C44.7701 6.83797 44.9442 6.76546 45.1473 6.76546H50.9497C51.1528 6.76546 51.322 6.83797 51.4574 6.98297C51.6025 7.11831 51.675 7.28749 51.675 7.4905C51.675 7.69351 51.6025 7.86752 51.4574 8.01253C51.322 8.14786 51.1528 8.21554 50.9497 8.21554H45.1473C44.9442 8.21554 44.7701 8.14786 44.6251 8.01253C44.4897 7.86752 44.422 7.69351 44.422 7.4905ZM44.422 5.89542C44.422 5.69241 44.4897 5.52323 44.6251 5.38789C44.7701 5.24289 44.9442 5.17038 45.1473 5.17038H46.5979C46.801 5.17038 46.9702 5.24289 47.1056 5.38789C47.2507 5.52323 47.3232 5.69241 47.3232 5.89542C47.3232 6.09843 47.2507 6.27244 47.1056 6.41745C46.9702 6.55279 46.801 6.62046 46.5979 6.62046H45.1473C44.9442 6.62046 44.7701 6.55279 44.6251 6.41745C44.4897 6.27244 44.422 6.09843 44.422 5.89542ZM44.422 4.30034C44.422 4.09733 44.4897 3.92815 44.6251 3.79281C44.7701 3.64781 44.9442 3.5753 45.1473 3.5753H46.5979C46.801 3.5753 46.9702 3.64781 47.1056 3.79281C47.2507 3.92815 47.3232 4.09733 47.3232 4.30034C47.3232 4.50335 47.2507 4.67736 47.1056 4.82237C46.9702 4.95771 46.801 5.02538 46.5979 5.02538H45.1473C44.9442 5.02538 44.7701 4.95771 44.6251 4.82237C44.4897 4.67736 44.422 4.50335 44.422 4.30034ZM50.2244 10.6807C50.2244 10.4776 50.2921 10.3085 50.4275 10.1731C50.5726 10.0281 50.7466 9.95562 50.9497 9.95562H52.4003C52.6034 9.95562 52.7727 10.0281 52.9081 10.1731C53.0531 10.3085 53.1256 10.4776 53.1256 10.6807C53.1256 10.8837 53.0531 11.0577 52.9081 11.2027C52.7727 11.338 52.6034 11.4057 52.4003 11.4057H50.9497C50.7466 11.4057 50.5726 11.338 50.4275 11.2027C50.2921 11.0577 50.2244 10.8837 50.2244 10.6807ZM50.2244 9.08558C50.2244 8.88257 50.2921 8.71339 50.4275 8.57805C50.5726 8.43305 50.7466 8.36054 50.9497 8.36054H52.4003C52.6034 8.36054 52.7727 8.43305 52.9081 8.57805C53.0531 8.71339 53.1256 8.88257 53.1256 9.08558C53.1256 9.28859 53.0531 9.4626 52.9081 9.6076C52.7727 9.74294 52.6034 9.81062 52.4003 9.81062H50.9497C50.7466 9.81062 50.5726 9.74294 50.4275 9.6076C50.2921 9.4626 50.2244 9.28859 50.2244 9.08558ZM50.2244 5.89542C50.2244 5.69241 50.2921 5.52323 50.4275 5.38789C50.5726 5.24289 50.7466 5.17038 50.9497 5.17038H52.4003C52.6034 5.17038 52.7727 5.24289 52.9081 5.38789C53.0531 5.52323 53.1256 5.69241 53.1256 5.89542C53.1256 6.09843 53.0531 6.27244 52.9081 6.41745C52.7727 6.55279 52.6034 6.62046 52.4003 6.62046H50.9497C50.7466 6.62046 50.5726 6.55279 50.4275 6.41745C50.2921 6.27244 50.2244 6.09843 50.2244 5.89542ZM50.2244 4.30034C50.2244 4.09733 50.2921 3.92815 50.4275 3.79281C50.5726 3.64781 50.7466 3.5753 50.9497 3.5753H52.4003C52.6034 3.5753 52.7727 3.64781 52.9081 3.79281C53.0531 3.92815 53.1256 4.09733 53.1256 4.30034C53.1256 4.50335 53.0531 4.67736 52.9081 4.82237C52.7727 4.95771 52.6034 5.02538 52.4003 5.02538H50.9497C50.7466 5.02538 50.5726 4.95771 50.4275 4.82237C50.2921 4.67736 50.2244 4.50335 50.2244 4.30034Z" fill="white"/>
<path d="M60.237 11.5507C60.4401 11.5507 60.6094 11.6232 60.7448 11.7682C60.8898 11.9036 60.9624 12.0727 60.9624 12.2757C60.9624 12.4787 60.8898 12.6528 60.7448 12.7978C60.6094 12.9331 60.4401 13.0008 60.237 13.0008H55.8852C55.6821 13.0008 55.508 12.9331 55.363 12.7978C55.2276 12.6528 55.1599 12.4787 55.1599 12.2757C55.1599 12.0727 55.2276 11.9036 55.363 11.7682C55.508 11.6232 55.6821 11.5507 55.8852 11.5507H60.237ZM55.1599 10.6807C55.1599 10.4776 55.2276 10.3085 55.363 10.1731C55.508 10.0281 55.6821 9.95562 55.8852 9.95562H57.3358C57.5389 9.95562 57.7081 10.0281 57.8435 10.1731C57.9886 10.3085 58.0611 10.4776 58.0611 10.6807C58.0611 10.8837 57.9886 11.0577 57.8435 11.2027C57.7081 11.338 57.5389 11.4057 57.3358 11.4057H55.8852C55.6821 11.4057 55.508 11.338 55.363 11.2027C55.2276 11.0577 55.1599 10.8837 55.1599 10.6807ZM55.1599 9.08558C55.1599 8.88257 55.2276 8.71339 55.363 8.57805C55.508 8.43305 55.6821 8.36054 55.8852 8.36054H57.3358C57.5389 8.36054 57.7081 8.43305 57.8435 8.57805C57.9886 8.71339 58.0611 8.88257 58.0611 9.08558C58.0611 9.28859 57.9886 9.4626 57.8435 9.6076C57.7081 9.74294 57.5389 9.81062 57.3358 9.81062H55.8852C55.6821 9.81062 55.508 9.74294 55.363 9.6076C55.2276 9.4626 55.1599 9.28859 55.1599 9.08558ZM55.1599 7.4905C55.1599 7.28749 55.2276 7.11831 55.363 6.98297C55.508 6.83797 55.6821 6.76546 55.8852 6.76546H57.3213C57.5244 6.76546 57.6936 6.83797 57.829 6.98297C57.9741 7.11831 58.0466 7.28749 58.0466 7.4905C58.0466 7.69351 57.9741 7.86752 57.829 8.01253C57.6936 8.14786 57.5244 8.21554 57.3213 8.21554H55.8852C55.6821 8.21554 55.508 8.14786 55.363 8.01253C55.2276 7.86752 55.1599 7.69351 55.1599 7.4905ZM55.1599 5.89542C55.1599 5.69241 55.2276 5.52323 55.363 5.38789C55.508 5.24289 55.6821 5.17038 55.8852 5.17038H57.3358C57.5389 5.17038 57.7081 5.24289 57.8435 5.38789C57.9886 5.52323 58.0611 5.69241 58.0611 5.89542C58.0611 6.09843 57.9886 6.27244 57.8435 6.41745C57.7081 6.55279 57.5389 6.62046 57.3358 6.62046H55.8852C55.6821 6.62046 55.508 6.55279 55.363 6.41745C55.2276 6.27244 55.1599 6.09843 55.1599 5.89542ZM55.1599 4.30034C55.1599 4.09733 55.2276 3.92815 55.363 3.79281C55.508 3.64781 55.6821 3.5753 55.8852 3.5753H57.3358C57.5389 3.5753 57.7081 3.64781 57.8435 3.79281C57.9886 3.92815 58.0611 4.09733 58.0611 4.30034C58.0611 4.50335 57.9886 4.67736 57.8435 4.82237C57.7081 4.95771 57.5389 5.02538 57.3358 5.02538H55.8852C55.6821 5.02538 55.508 4.95771 55.363 4.82237C55.2276 4.67736 55.1599 4.50335 55.1599 4.30034ZM55.1599 2.70526C55.1599 2.50225 55.2276 2.33308 55.363 2.19774C55.508 2.05273 55.6821 1.98022 55.8852 1.98022H57.3358C57.5389 1.98022 57.7081 2.05273 57.8435 2.19774C57.9886 2.33308 58.0611 2.50225 58.0611 2.70526C58.0611 2.90827 57.9886 3.08228 57.8435 3.22729C57.7081 3.36263 57.5389 3.4303 57.3358 3.4303H55.8852C55.6821 3.4303 55.508 3.36263 55.363 3.22729C55.2276 3.08228 55.1599 2.90827 55.1599 2.70526Z" fill="white"/>
<path d="M64.9572 1.98022C65.1603 1.98022 65.3295 2.05273 65.4649 2.19774C65.61 2.33308 65.6825 2.50225 65.6825 2.70526C65.6825 2.90827 65.61 3.08228 65.4649 3.22729C65.3295 3.36263 65.1603 3.4303 64.9572 3.4303H63.5066C63.3035 3.4303 63.1294 3.36263 62.9844 3.22729C62.849 3.08228 62.7813 2.90827 62.7813 2.70526C62.7813 2.50225 62.849 2.33308 62.9844 2.19774C63.1294 2.05273 63.3035 1.98022 63.5066 1.98022H64.9572ZM62.7813 10.6807C62.7813 10.4776 62.849 10.3085 62.9844 10.1731C63.1294 10.0281 63.3035 9.95562 63.5066 9.95562H64.9572C65.1603 9.95562 65.3295 10.0281 65.4649 10.1731C65.61 10.3085 65.6825 10.4776 65.6825 10.6807C65.6825 10.8837 65.61 11.0577 65.4649 11.2027C65.3295 11.338 65.1603 11.4057 64.9572 11.4057H63.5066C63.3035 11.4057 63.1294 11.338 62.9844 11.2027C62.849 11.0577 62.7813 10.8837 62.7813 10.6807ZM62.7813 9.08558C62.7813 8.88257 62.849 8.71339 62.9844 8.57805C63.1294 8.43305 63.3035 8.36054 63.5066 8.36054H64.9572C65.1603 8.36054 65.3295 8.43305 65.4649 8.57805C65.61 8.71339 65.6825 8.88257 65.6825 9.08558C65.6825 9.28859 65.61 9.4626 65.4649 9.6076C65.3295 9.74294 65.1603 9.81062 64.9572 9.81062H63.5066C63.3035 9.81062 63.1294 9.74294 62.9844 9.6076C62.849 9.4626 62.7813 9.28859 62.7813 9.08558ZM62.7813 7.4905C62.7813 7.28749 62.849 7.11831 62.9844 6.98297C63.1294 6.83797 63.3035 6.76546 63.5066 6.76546H64.9572C65.1603 6.76546 65.3295 6.83797 65.4649 6.98297C65.61 7.11831 65.6825 7.28749 65.6825 7.4905C65.6825 7.69351 65.61 7.86752 65.4649 8.01253C65.3295 8.14786 65.1603 8.21554 64.9572 8.21554H63.5066C63.3035 8.21554 63.1294 8.14786 62.9844 8.01253C62.849 7.86752 62.7813 7.69351 62.7813 7.4905ZM62.7813 5.89542C62.7813 5.69241 62.849 5.52323 62.9844 5.38789C63.1294 5.24289 63.3035 5.17038 63.5066 5.17038H64.9572C65.1603 5.17038 65.3295 5.24289 65.4649 5.38789C65.61 5.52323 65.6825 5.69241 65.6825 5.89542C65.6825 6.09843 65.61 6.27244 65.4649 6.41745C65.3295 6.55279 65.1603 6.62046 64.9572 6.62046H63.5066C63.3035 6.62046 63.1294 6.55279 62.9844 6.41745C62.849 6.27244 62.7813 6.09843 62.7813 5.89542ZM62.7813 4.30034C62.7813 4.09733 62.849 3.92815 62.9844 3.79281C63.1294 3.64781 63.3035 3.5753 63.5066 3.5753H64.9572C65.1603 3.5753 65.3295 3.64781 65.4649 3.79281C65.61 3.92815 65.6825 4.09733 65.6825 4.30034C65.6825 4.50335 65.61 4.67736 65.4649 4.82237C65.3295 4.95771 65.1603 5.02538 64.9572 5.02538H63.5066C63.3035 5.02538 63.1294 4.95771 62.9844 4.82237C62.849 4.67736 62.7813 4.50335 62.7813 4.30034ZM63.5066 12.2757C63.5066 12.0727 63.5743 11.9036 63.7097 11.7682C63.8547 11.6232 64.0288 11.5507 64.2319 11.5507H70.0343C70.2374 11.5507 70.4067 11.6232 70.5421 11.7682C70.6871 11.9036 70.7597 12.0727 70.7597 12.2757C70.7597 12.4787 70.6871 12.6528 70.5421 12.7978C70.4067 12.9331 70.2374 13.0008 70.0343 13.0008H64.2319C64.0288 13.0008 63.8547 12.9331 63.7097 12.7978C63.5743 12.6528 63.5066 12.4787 63.5066 12.2757ZM68.5837 10.6807C68.5837 10.4776 68.6514 10.3085 68.7868 10.1731C68.9319 10.0281 69.1059 9.95562 69.309 9.95562H70.7597C70.9627 9.95562 71.132 10.0281 71.2674 10.1731C71.4124 10.3085 71.485 10.4776 71.485 10.6807C71.485 10.8837 71.4124 11.0577 71.2674 11.2027C71.132 11.338 70.9627 11.4057 70.7597 11.4057H69.309C69.1059 11.4057 68.9319 11.338 68.7868 11.2027C68.6514 11.0577 68.5837 10.8837 68.5837 10.6807ZM68.5837 9.08558C68.5837 8.88257 68.6514 8.71339 68.7868 8.57805C68.9319 8.43305 69.1059 8.36054 69.309 8.36054H70.7597C70.9627 8.36054 71.132 8.43305 71.2674 8.57805C71.4124 8.71339 71.485 8.88257 71.485 9.08558C71.485 9.28859 71.4124 9.4626 71.2674 9.6076C71.132 9.74294 70.9627 9.81062 70.7597 9.81062H69.309C69.1059 9.81062 68.9319 9.74294 68.7868 9.6076C68.6514 9.4626 68.5837 9.28859 68.5837 9.08558ZM68.5837 7.4905C68.5837 7.28749 68.6514 7.11831 68.7868 6.98297C68.9319 6.83797 69.1059 6.76546 69.309 6.76546H70.7597C70.9627 6.76546 71.132 6.83797 71.2674 6.98297C71.4124 7.11831 71.485 7.28749 71.485 7.4905C71.485 7.69351 71.4124 7.86752 71.2674 8.01253C71.132 8.14786 70.9627 8.21554 70.7597 8.21554H69.309C69.1059 8.21554 68.9319 8.14786 68.7868 8.01253C68.6514 7.86752 68.5837 7.69351 68.5837 7.4905ZM68.5837 5.89542C68.5837 5.69241 68.6514 5.52323 68.7868 5.38789C68.9319 5.24289 69.1059 5.17038 69.309 5.17038H70.7597C70.9627 5.17038 71.132 5.24289 71.2674 5.38789C71.4124 5.52323 71.485 5.69241 71.485 5.89542C71.485 6.09843 71.4124 6.27244 71.2674 6.41745C71.132 6.55279 70.9627 6.62046 70.7597 6.62046H69.309C69.1059 6.62046 68.9319 6.55279 68.7868 6.41745C68.6514 6.27244 68.5837 6.09843 68.5837 5.89542ZM68.5837 4.30034C68.5837 4.09733 68.6514 3.92815 68.7868 3.79281C68.9319 3.64781 69.1059 3.5753 69.309 3.5753H70.7597C70.9627 3.5753 71.132 3.64781 71.2674 3.79281C71.4124 3.92815 71.485 4.09733 71.485 4.30034C71.485 4.50335 71.4124 4.67736 71.2674 4.82237C71.132 4.95771 70.9627 5.02538 70.7597 5.02538H69.309C69.1059 5.02538 68.9319 4.95771 68.7868 4.82237C68.6514 4.67736 68.5837 4.50335 68.5837 4.30034ZM68.5837 2.70526C68.5837 2.50225 68.6514 2.33308 68.7868 2.19774C68.9319 2.05273 69.1059 1.98022 69.309 1.98022H70.7597C70.9627 1.98022 71.132 2.05273 71.2674 2.19774C71.4124 2.33308 71.485 2.50225 71.485 2.70526C71.485 2.90827 71.4124 3.08228 71.2674 3.22729C71.132 3.36263 70.9627 3.4303 70.7597 3.4303H69.309C69.1059 3.4303 68.9319 3.36263 68.7868 3.22729C68.6514 3.08228 68.5837 2.90827 68.5837 2.70526Z" fill="white"/>
<path d="M75.834 3.4303C75.6309 3.4303 75.4568 3.36263 75.3117 3.22729C75.1763 3.08228 75.1087 2.90827 75.1087 2.70526C75.1087 2.50225 75.1763 2.33308 75.3117 2.19774C75.4568 2.05273 75.6309 1.98022 75.834 1.98022H80.9111C81.1142 1.98022 81.2834 2.05273 81.4188 2.19774C81.5639 2.33308 81.6364 2.50225 81.6364 2.70526C81.6364 2.90827 81.5639 3.08228 81.4188 3.22729C81.2834 3.36263 81.1142 3.4303 80.9111 3.4303H75.834ZM73.658 12.2757C73.658 12.0727 73.7257 11.9036 73.8611 11.7682C74.0062 11.6232 74.1803 11.5507 74.3834 11.5507H80.1858C80.3889 11.5507 80.5581 11.6232 80.6935 11.7682C80.8386 11.9036 80.9111 12.0727 80.9111 12.2757C80.9111 12.4787 80.8386 12.6528 80.6935 12.7978C80.5581 12.9331 80.3889 13.0008 80.1858 13.0008H74.3834C74.1803 13.0008 74.0062 12.9331 73.8611 12.7978C73.7257 12.6528 73.658 12.4787 73.658 12.2757ZM73.658 5.89542C73.658 5.69241 73.7257 5.52323 73.8611 5.38789C74.0062 5.24289 74.1803 5.17038 74.3834 5.17038H75.834C76.037 5.17038 76.2063 5.24289 76.3417 5.38789C76.4867 5.52323 76.5593 5.69241 76.5593 5.89542C76.5593 6.09843 76.4867 6.27244 76.3417 6.41745C76.2063 6.55279 76.037 6.62046 75.834 6.62046H74.3834C74.1803 6.62046 74.0062 6.55279 73.8611 6.41745C73.7257 6.27244 73.658 6.09843 73.658 5.89542ZM73.658 4.30034C73.658 4.09733 73.7257 3.92815 73.8611 3.79281C74.0062 3.64781 74.1803 3.5753 74.3834 3.5753H75.834C76.037 3.5753 76.2063 3.64781 76.3417 3.79281C76.4867 3.92815 76.5593 4.09733 76.5593 4.30034C76.5593 4.50335 76.4867 4.67736 76.3417 4.82237C76.2063 4.95771 76.037 5.02538 75.834 5.02538H74.3834C74.1803 5.02538 74.0062 4.95771 73.8611 4.82237C73.7257 4.67736 73.658 4.50335 73.658 4.30034ZM75.1087 7.4905C75.1087 7.28749 75.1763 7.11831 75.3117 6.98297C75.4568 6.83797 75.6309 6.76546 75.834 6.76546H80.1858C80.3889 6.76546 80.5581 6.83797 80.6935 6.98297C80.8386 7.11831 80.9111 7.28749 80.9111 7.4905C80.9111 7.69351 80.8386 7.86752 80.6935 8.01253C80.5581 8.14786 80.3889 8.21554 80.1858 8.21554H75.834C75.6309 8.21554 75.4568 8.14786 75.3117 8.01253C75.1763 7.86752 75.1087 7.69351 75.1087 7.4905ZM79.4605 10.6807C79.4605 10.4776 79.5282 10.3085 79.6636 10.1731C79.8086 10.0281 79.9827 9.95562 80.1858 9.95562H81.6364C81.8395 9.95562 82.0087 10.0281 82.1441 10.1731C82.2892 10.3085 82.3617 10.4776 82.3617 10.6807C82.3617 10.8837 82.2892 11.0577 82.1441 11.2027C82.0087 11.338 81.8395 11.4057 81.6364 11.4057H80.1858C79.9827 11.4057 79.8086 11.338 79.6636 11.2027C79.5282 11.0577 79.4605 10.8837 79.4605 10.6807ZM79.4605 9.08558C79.4605 8.88257 79.5282 8.71339 79.6636 8.57805C79.8086 8.43305 79.9827 8.36054 80.1858 8.36054H81.6364C81.8395 8.36054 82.0087 8.43305 82.1441 8.57805C82.2892 8.71339 82.3617 8.88257 82.3617 9.08558C82.3617 9.28859 82.2892 9.4626 82.1441 9.6076C82.0087 9.74294 81.8395 9.81062 81.6364 9.81062H80.1858C79.9827 9.81062 79.8086 9.74294 79.6636 9.6076C79.5282 9.4626 79.4605 9.28859 79.4605 9.08558Z" fill="white"/>
<path d="M86.7164 1.98022C86.9195 1.98022 87.0887 2.05273 87.2241 2.19774C87.3692 2.33308 87.4417 2.50225 87.4417 2.70526C87.4417 2.90827 87.3692 3.08228 87.2241 3.22729C87.0887 3.36263 86.9195 3.4303 86.7164 3.4303H85.2658C85.0627 3.4303 84.8886 3.36263 84.7436 3.22729C84.6082 3.08228 84.5405 2.90827 84.5405 2.70526C84.5405 2.50225 84.6082 2.33308 84.7436 2.19774C84.8886 2.05273 85.0627 1.98022 85.2658 1.98022H86.7164ZM84.5405 12.2757C84.5405 12.0727 84.6082 11.9036 84.7436 11.7682C84.8886 11.6232 85.0627 11.5507 85.2658 11.5507H86.7164C86.9195 11.5507 87.0887 11.6232 87.2241 11.7682C87.3692 11.9036 87.4417 12.0727 87.4417 12.2757C87.4417 12.4787 87.3692 12.6528 87.2241 12.7978C87.0887 12.9331 86.9195 13.0008 86.7164 13.0008H85.2658C85.0627 13.0008 84.8886 12.9331 84.7436 12.7978C84.6082 12.6528 84.5405 12.4787 84.5405 12.2757ZM84.5405 10.6807C84.5405 10.4776 84.6082 10.3085 84.7436 10.1731C84.8886 10.0281 85.0627 9.95562 85.2658 9.95562H86.7164C86.9195 9.95562 87.0887 10.0281 87.2241 10.1731C87.3692 10.3085 87.4417 10.4776 87.4417 10.6807C87.4417 10.8837 87.3692 11.0577 87.2241 11.2027C87.0887 11.338 86.9195 11.4057 86.7164 11.4057H85.2658C85.0627 11.4057 84.8886 11.338 84.7436 11.2027C84.6082 11.0577 84.5405 10.8837 84.5405 10.6807ZM84.5405 9.08558C84.5405 8.88257 84.6082 8.71339 84.7436 8.57805C84.8886 8.43305 85.0627 8.36054 85.2658 8.36054H86.7164C86.9195 8.36054 87.0887 8.43305 87.2241 8.57805C87.3692 8.71339 87.4417 8.88257 87.4417 9.08558C87.4417 9.28859 87.3692 9.4626 87.2241 9.6076C87.0887 9.74294 86.9195 9.81062 86.7164 9.81062H85.2658C85.0627 9.81062 84.8886 9.74294 84.7436 9.6076C84.6082 9.4626 84.5405 9.28859 84.5405 9.08558ZM84.5405 7.4905C84.5405 7.28749 84.6082 7.11831 84.7436 6.98297C84.8886 6.83797 85.0627 6.76546 85.2658 6.76546H92.5188C92.7219 6.76546 92.8912 6.83797 93.0266 6.98297C93.1716 7.11831 93.2441 7.28749 93.2441 7.4905C93.2441 7.69351 93.1716 7.86752 93.0266 8.01253C92.8912 8.14786 92.7219 8.21554 92.5188 8.21554H85.2658C85.0627 8.21554 84.8886 8.14786 84.7436 8.01253C84.6082 7.86752 84.5405 7.69351 84.5405 7.4905ZM84.5405 5.89542C84.5405 5.69241 84.6082 5.52323 84.7436 5.38789C84.8886 5.24289 85.0627 5.17038 85.2658 5.17038H86.7164C86.9195 5.17038 87.0887 5.24289 87.2241 5.38789C87.3692 5.52323 87.4417 5.69241 87.4417 5.89542C87.4417 6.09843 87.3692 6.27244 87.2241 6.41745C87.0887 6.55279 86.9195 6.62046 86.7164 6.62046H85.2658C85.0627 6.62046 84.8886 6.55279 84.7436 6.41745C84.6082 6.27244 84.5405 6.09843 84.5405 5.89542ZM84.5405 4.30034C84.5405 4.09733 84.6082 3.92815 84.7436 3.79281C84.8886 3.64781 85.0627 3.5753 85.2658 3.5753H86.7164C86.9195 3.5753 87.0887 3.64781 87.2241 3.79281C87.3692 3.92815 87.4417 4.09733 87.4417 4.30034C87.4417 4.50335 87.3692 4.67736 87.2241 4.82237C87.0887 4.95771 86.9195 5.02538 86.7164 5.02538H85.2658C85.0627 5.02538 84.8886 4.95771 84.7436 4.82237C84.6082 4.67736 84.5405 4.50335 84.5405 4.30034ZM90.3429 12.2757C90.3429 12.0727 90.4106 11.9036 90.546 11.7682C90.6911 11.6232 90.8651 11.5507 91.0682 11.5507H92.5188C92.7219 11.5507 92.8912 11.6232 93.0266 11.7682C93.1716 11.9036 93.2441 12.0727 93.2441 12.2757C93.2441 12.4787 93.1716 12.6528 93.0266 12.7978C92.8912 12.9331 92.7219 13.0008 92.5188 13.0008H91.0682C90.8651 13.0008 90.6911 12.9331 90.546 12.7978C90.4106 12.6528 90.3429 12.4787 90.3429 12.2757ZM90.3429 10.6807C90.3429 10.4776 90.4106 10.3085 90.546 10.1731C90.6911 10.0281 90.8651 9.95562 91.0682 9.95562H92.5188C92.7219 9.95562 92.8912 10.0281 93.0266 10.1731C93.1716 10.3085 93.2441 10.4776 93.2441 10.6807C93.2441 10.8837 93.1716 11.0577 93.0266 11.2027C92.8912 11.338 92.7219 11.4057 92.5188 11.4057H91.0682C90.8651 11.4057 90.6911 11.338 90.546 11.2027C90.4106 11.0577 90.3429 10.8837 90.3429 10.6807ZM90.3429 9.08558C90.3429 8.88257 90.4106 8.71339 90.546 8.57805C90.6911 8.43305 90.8651 8.36054 91.0682 8.36054H92.5188C92.7219 8.36054 92.8912 8.43305 93.0266 8.57805C93.1716 8.71339 93.2441 8.88257 93.2441 9.08558C93.2441 9.28859 93.1716 9.4626 93.0266 9.6076C92.8912 9.74294 92.7219 9.81062 92.5188 9.81062H91.0682C90.8651 9.81062 90.6911 9.74294 90.546 9.6076C90.4106 9.4626 90.3429 9.28859 90.3429 9.08558ZM90.3429 5.89542C90.3429 5.69241 90.4106 5.52323 90.546 5.38789C90.6911 5.24289 90.8651 5.17038 91.0682 5.17038H92.5188C92.7219 5.17038 92.8912 5.24289 93.0266 5.38789C93.1716 5.52323 93.2441 5.69241 93.2441 5.89542C93.2441 6.09843 93.1716 6.27244 93.0266 6.41745C92.8912 6.55279 92.7219 6.62046 92.5188 6.62046H91.0682C90.8651 6.62046 90.6911 6.55279 90.546 6.41745C90.4106 6.27244 90.3429 6.09843 90.3429 5.89542ZM90.3429 4.30034C90.3429 4.09733 90.4106 3.92815 90.546 3.79281C90.6911 3.64781 90.8651 3.5753 91.0682 3.5753H92.5188C92.7219 3.5753 92.8912 3.64781 93.0266 3.79281C93.1716 3.92815 93.2441 4.09733 93.2441 4.30034C93.2441 4.50335 93.1716 4.67736 93.0266 4.82237C92.8912 4.95771 92.7219 5.02538 92.5188 5.02538H91.0682C90.8651 5.02538 90.6911 4.95771 90.546 4.82237C90.4106 4.67736 90.3429 4.50335 90.3429 4.30034ZM90.3429 2.70526C90.3429 2.50225 90.4106 2.33308 90.546 2.19774C90.6911 2.05273 90.8651 1.98022 91.0682 1.98022H92.5188C92.7219 1.98022 92.8912 2.05273 93.0266 2.19774C93.1716 2.33308 93.2441 2.50225 93.2441 2.70526C93.2441 2.90827 93.1716 3.08228 93.0266 3.22729C92.8912 3.36263 92.7219 3.4303 92.5188 3.4303H91.0682C90.8651 3.4303 90.6911 3.36263 90.546 3.22729C90.4106 3.08228 90.3429 2.90827 90.3429 2.70526Z" fill="white"/>
<path d="M4.04661 0.383363C4.04661 0.171637 3.87497 0 3.66324 0H0.638938C0.286062 0 0 0.286062 0 0.638938V3.66324C0 3.87497 0.171637 4.04661 0.383363 4.04661C0.595088 4.04661 0.766726 3.87497 0.766726 3.66324V1.40566C0.766726 1.05279 1.05279 0.766726 1.40566 0.766726H3.66324C3.87497 0.766726 4.04661 0.595088 4.04661 0.383363Z" fill="#E6E6E6"/>
<path d="M94.8411 4.04661C95.0528 4.04661 95.2244 3.87497 95.2244 3.66324L95.2244 0.638938C95.2244 0.286062 94.9384 -1.25042e-08 94.5855 -2.79289e-08L91.5612 -1.60126e-07C91.3495 -1.6938e-07 91.1778 0.171637 91.1778 0.383363C91.1778 0.595088 91.3495 0.766725 91.5612 0.766725L93.8188 0.766726C94.1716 0.766726 94.4577 1.05279 94.4577 1.40566L94.4577 3.66324C94.4577 3.87497 94.6293 4.04661 94.8411 4.04661Z" fill="#E6E6E6"/>
<path d="M91.1778 14.5977C91.1778 14.8094 91.3495 14.9811 91.5612 14.9811L94.5855 14.9811C94.9384 14.9811 95.2244 14.695 95.2244 14.3421L95.2244 11.3178C95.2244 11.1061 95.0528 10.9345 94.8411 10.9345C94.6293 10.9345 94.4577 11.1061 94.4577 11.3178L94.4577 13.5754C94.4577 13.9283 94.1716 14.2144 93.8188 14.2144L91.5612 14.2144C91.3495 14.2144 91.1778 14.386 91.1778 14.5977Z" fill="#E6E6E6"/>
<path d="M0.383363 10.9345C0.171638 10.9345 5.08141e-07 11.1061 4.80377e-07 11.3178L8.37866e-08 14.3421C3.75125e-08 14.695 0.286062 14.9811 0.638938 14.9811L3.66324 14.9811C3.87497 14.9811 4.04661 14.8094 4.04661 14.5977C4.04661 14.386 3.87497 14.2144 3.66324 14.2144L1.40566 14.2144C1.05279 14.2144 0.766726 13.9283 0.766726 13.5754L0.766726 11.3178C0.766726 11.1061 0.595089 10.9345 0.383363 10.9345Z" fill="#E6E6E6"/>
<path d="M47.3539 13.6913C47.378 13.6913 47.3981 13.6999 47.4142 13.7171C47.4314 13.7332 47.44 13.7533 47.44 13.7774C47.44 13.8015 47.4314 13.8222 47.4142 13.8394C47.3981 13.8555 47.378 13.8635 47.3539 13.8635H46.7512C46.7271 13.8635 46.7065 13.8555 46.6892 13.8394C46.6732 13.8222 46.6651 13.8015 46.6651 13.7774C46.6651 13.7533 46.6732 13.7332 46.6892 13.7171C46.7065 13.6999 46.7271 13.6913 46.7512 13.6913H47.3539ZM46.579 14.9139C46.579 14.8898 46.5871 14.8697 46.6031 14.8536C46.6204 14.8364 46.641 14.8278 46.6651 14.8278H47.5261C47.5502 14.8278 47.5703 14.8364 47.5864 14.8536C47.6036 14.8697 47.6122 14.8898 47.6122 14.9139C47.6122 14.938 47.6036 14.9587 47.5864 14.9759C47.5703 14.992 47.5502 15 47.5261 15H46.6651C46.641 15 46.6204 14.992 46.6031 14.9759C46.5871 14.9587 46.579 14.938 46.579 14.9139ZM46.579 14.7245C46.579 14.7004 46.5871 14.6803 46.6031 14.6642C46.6204 14.647 46.641 14.6384 46.6651 14.6384H46.8373C46.8614 14.6384 46.8815 14.647 46.8976 14.6642C46.9148 14.6803 46.9234 14.7004 46.9234 14.7245C46.9234 14.7486 46.9148 14.7692 46.8976 14.7865C46.8815 14.8025 46.8614 14.8106 46.8373 14.8106H46.6651C46.641 14.8106 46.6204 14.8025 46.6031 14.7865C46.5871 14.7692 46.579 14.7486 46.579 14.7245ZM46.579 14.5351C46.579 14.511 46.5871 14.4909 46.6031 14.4748C46.6204 14.4576 46.641 14.449 46.6651 14.449H46.8373C46.8614 14.449 46.8815 14.4576 46.8976 14.4748C46.9148 14.4909 46.9234 14.511 46.9234 14.5351C46.9234 14.5592 46.9148 14.5798 46.8976 14.597C46.8815 14.6131 46.8614 14.6212 46.8373 14.6212H46.6651C46.641 14.6212 46.6204 14.6131 46.6031 14.597C46.5871 14.5798 46.579 14.5592 46.579 14.5351ZM46.7512 14.3456C46.7512 14.3215 46.7593 14.3014 46.7753 14.2854C46.7926 14.2682 46.8132 14.2595 46.8373 14.2595H47.3539C47.378 14.2595 47.3981 14.2682 47.4142 14.2854C47.4314 14.3014 47.44 14.3215 47.44 14.3456C47.44 14.3697 47.4314 14.3904 47.4142 14.4076C47.3981 14.4237 47.378 14.4317 47.3539 14.4317H46.8373C46.8132 14.4317 46.7926 14.4237 46.7753 14.4076C46.7593 14.3904 46.7512 14.3697 46.7512 14.3456ZM47.2678 14.1562C47.2678 14.1321 47.2759 14.112 47.2919 14.096C47.3092 14.0787 47.3298 14.0701 47.3539 14.0701H47.5261C47.5502 14.0701 47.5703 14.0787 47.5864 14.096C47.6036 14.112 47.6122 14.1321 47.6122 14.1562C47.6122 14.1803 47.6036 14.201 47.5864 14.2182C47.5703 14.2343 47.5502 14.2423 47.5261 14.2423H47.3539C47.3298 14.2423 47.3092 14.2343 47.2919 14.2182C47.2759 14.201 47.2678 14.1803 47.2678 14.1562ZM47.2678 13.9668C47.2678 13.9427 47.2759 13.9226 47.2919 13.9065C47.3092 13.8893 47.3298 13.8807 47.3539 13.8807H47.5261C47.5502 13.8807 47.5703 13.8893 47.5864 13.9065C47.6036 13.9226 47.6122 13.9427 47.6122 13.9668C47.6122 13.9909 47.6036 14.0116 47.5864 14.0288C47.5703 14.0449 47.5502 14.0529 47.5261 14.0529H47.3539C47.3298 14.0529 47.3092 14.0449 47.2919 14.0288C47.2759 14.0116 47.2678 13.9909 47.2678 13.9668Z" fill="white"/>
<path d="M49.9369 13.6913C49.961 13.6913 49.9811 13.6999 49.9971 13.7171C50.0144 13.7332 50.023 13.7533 50.023 13.7774C50.023 13.8015 50.0144 13.8222 49.9971 13.8394C49.9811 13.8555 49.961 13.8635 49.9369 13.8635H49.3342C49.3101 13.8635 49.2894 13.8555 49.2722 13.8394C49.2561 13.8222 49.2481 13.8015 49.2481 13.7774C49.2481 13.7533 49.2561 13.7332 49.2722 13.7171C49.2894 13.6999 49.3101 13.6913 49.3342 13.6913H49.9369ZM49.162 14.9139C49.162 14.8898 49.17 14.8697 49.1861 14.8536C49.2033 14.8364 49.224 14.8278 49.2481 14.8278H50.1091C50.1332 14.8278 50.1533 14.8364 50.1693 14.8536C50.1865 14.8697 50.1952 14.8898 50.1952 14.9139C50.1952 14.938 50.1865 14.9587 50.1693 14.9759C50.1533 14.992 50.1332 15 50.1091 15H49.2481C49.224 15 49.2033 14.992 49.1861 14.9759C49.17 14.9587 49.162 14.938 49.162 14.9139ZM49.162 14.7245C49.162 14.7004 49.17 14.6803 49.1861 14.6642C49.2033 14.647 49.224 14.6384 49.2481 14.6384H49.4203C49.4444 14.6384 49.4645 14.647 49.4805 14.6642C49.4978 14.6803 49.5064 14.7004 49.5064 14.7245C49.5064 14.7486 49.4978 14.7692 49.4805 14.7865C49.4645 14.8025 49.4444 14.8106 49.4203 14.8106H49.2481C49.224 14.8106 49.2033 14.8025 49.1861 14.7865C49.17 14.7692 49.162 14.7486 49.162 14.7245ZM49.162 14.5351C49.162 14.511 49.17 14.4909 49.1861 14.4748C49.2033 14.4576 49.224 14.449 49.2481 14.449H49.4203C49.4444 14.449 49.4645 14.4576 49.4805 14.4748C49.4978 14.4909 49.5064 14.511 49.5064 14.5351C49.5064 14.5592 49.4978 14.5798 49.4805 14.597C49.4645 14.6131 49.4444 14.6212 49.4203 14.6212H49.2481C49.224 14.6212 49.2033 14.6131 49.1861 14.597C49.17 14.5798 49.162 14.5592 49.162 14.5351ZM49.3342 14.3456C49.3342 14.3215 49.3422 14.3014 49.3583 14.2854C49.3755 14.2682 49.3962 14.2595 49.4203 14.2595H49.9369C49.961 14.2595 49.9811 14.2682 49.9971 14.2854C50.0144 14.3014 50.023 14.3215 50.023 14.3456C50.023 14.3697 50.0144 14.3904 49.9971 14.4076C49.9811 14.4237 49.961 14.4317 49.9369 14.4317H49.4203C49.3962 14.4317 49.3755 14.4237 49.3583 14.4076C49.3422 14.3904 49.3342 14.3697 49.3342 14.3456ZM49.8508 14.1562C49.8508 14.1321 49.8588 14.112 49.8749 14.096C49.8921 14.0787 49.9128 14.0701 49.9369 14.0701H50.1091C50.1332 14.0701 50.1533 14.0787 50.1693 14.096C50.1865 14.112 50.1952 14.1321 50.1952 14.1562C50.1952 14.1803 50.1865 14.201 50.1693 14.2182C50.1533 14.2343 50.1332 14.2423 50.1091 14.2423H49.9369C49.9128 14.2423 49.8921 14.2343 49.8749 14.2182C49.8588 14.201 49.8508 14.1803 49.8508 14.1562ZM49.8508 13.9668C49.8508 13.9427 49.8588 13.9226 49.8749 13.9065C49.8921 13.8893 49.9128 13.8807 49.9369 13.8807H50.1091C50.1332 13.8807 50.1533 13.8893 50.1693 13.9065C50.1865 13.9226 50.1952 13.9427 50.1952 13.9668C50.1952 13.9909 50.1865 14.0116 50.1693 14.0288C50.1533 14.0449 50.1332 14.0529 50.1091 14.0529H49.9369C49.9128 14.0529 49.8921 14.0449 49.8749 14.0288C49.8588 14.0116 49.8508 13.9909 49.8508 13.9668Z" fill="white"/>
<path d="M51.2717 13.6913C51.2958 13.6913 51.3159 13.6999 51.332 13.7171C51.3492 13.7332 51.3578 13.7533 51.3578 13.7774C51.3578 13.8015 51.3492 13.8222 51.332 13.8394C51.3159 13.8555 51.2958 13.8635 51.2717 13.8635H50.4968C50.4727 13.8635 50.4521 13.8555 50.4348 13.8394C50.4188 13.8222 50.4107 13.8015 50.4107 13.7774C50.4107 13.7533 50.4188 13.7332 50.4348 13.7171C50.4521 13.6999 50.4727 13.6913 50.4968 13.6913H51.2717ZM50.4107 14.9139C50.4107 14.8898 50.4188 14.8697 50.4348 14.8536C50.4521 14.8364 50.4727 14.8278 50.4968 14.8278H51.1856C51.2097 14.8278 51.2298 14.8364 51.2459 14.8536C51.2631 14.8697 51.2717 14.8898 51.2717 14.9139C51.2717 14.938 51.2631 14.9587 51.2459 14.9759C51.2298 14.992 51.2097 15 51.1856 15H50.4968C50.4727 15 50.4521 14.992 50.4348 14.9759C50.4188 14.9587 50.4107 14.938 50.4107 14.9139ZM50.4107 14.3456C50.4107 14.3215 50.4188 14.3014 50.4348 14.2854C50.4521 14.2682 50.4727 14.2595 50.4968 14.2595H51.1856C51.2097 14.2595 51.2298 14.2682 51.2459 14.2854C51.2631 14.3014 51.2717 14.3215 51.2717 14.3456C51.2717 14.3697 51.2631 14.3904 51.2459 14.4076C51.2298 14.4237 51.2097 14.4317 51.1856 14.4317H50.4968C50.4727 14.4317 50.4521 14.4237 50.4348 14.4076C50.4188 14.3904 50.4107 14.3697 50.4107 14.3456ZM50.4107 14.1562C50.4107 14.1321 50.4188 14.112 50.4348 14.096C50.4521 14.0787 50.4727 14.0701 50.4968 14.0701H50.669C50.6931 14.0701 50.7132 14.0787 50.7293 14.096C50.7465 14.112 50.7551 14.1321 50.7551 14.1562C50.7551 14.1803 50.7465 14.201 50.7293 14.2182C50.7132 14.2343 50.6931 14.2423 50.669 14.2423H50.4968C50.4727 14.2423 50.4521 14.2343 50.4348 14.2182C50.4188 14.201 50.4107 14.1803 50.4107 14.1562ZM50.4107 13.9668C50.4107 13.9427 50.4188 13.9226 50.4348 13.9065C50.4521 13.8893 50.4727 13.8807 50.4968 13.8807H50.669C50.6931 13.8807 50.7132 13.8893 50.7293 13.9065C50.7465 13.9226 50.7551 13.9427 50.7551 13.9668C50.7551 13.9909 50.7465 14.0116 50.7293 14.0288C50.7132 14.0449 50.6931 14.0529 50.669 14.0529H50.4968C50.4727 14.0529 50.4521 14.0449 50.4348 14.0288C50.4188 14.0116 50.4107 13.9909 50.4107 13.9668ZM51.0995 14.7245C51.0995 14.7004 51.1076 14.6803 51.1236 14.6642C51.1409 14.647 51.1615 14.6384 51.1856 14.6384H51.3578C51.3819 14.6384 51.402 14.647 51.4181 14.6642C51.4353 14.6803 51.4439 14.7004 51.4439 14.7245C51.4439 14.7486 51.4353 14.7692 51.4181 14.7865C51.402 14.8025 51.3819 14.8106 51.3578 14.8106H51.1856C51.1615 14.8106 51.1409 14.8025 51.1236 14.7865C51.1076 14.7692 51.0995 14.7486 51.0995 14.7245ZM51.0995 14.5351C51.0995 14.511 51.1076 14.4909 51.1236 14.4748C51.1409 14.4576 51.1615 14.449 51.1856 14.449H51.3578C51.3819 14.449 51.402 14.4576 51.4181 14.4748C51.4353 14.4909 51.4439 14.511 51.4439 14.5351C51.4439 14.5592 51.4353 14.5798 51.4181 14.597C51.402 14.6131 51.3819 14.6212 51.3578 14.6212H51.1856C51.1615 14.6212 51.1409 14.6131 51.1236 14.597C51.1076 14.5798 51.0995 14.5592 51.0995 14.5351Z" fill="white"/>
<path fill-rule="evenodd" clip-rule="evenodd" d="M47.8089 14.4731C47.7928 14.4891 47.7847 14.5092 47.7847 14.5333C47.7847 14.5574 47.7928 14.5781 47.8089 14.5953C47.8261 14.6114 47.8467 14.6194 47.8708 14.6194H48.043C48.0672 14.6194 48.0872 14.6114 48.1033 14.5953C48.1205 14.5781 48.1291 14.5574 48.1291 14.5333C48.1291 14.5092 48.1205 14.4891 48.1033 14.4731C48.0872 14.4558 48.0672 14.4472 48.043 14.4472H47.8708C47.8467 14.4472 47.8261 14.4558 47.8089 14.4731ZM47.8089 14.2837C47.7928 14.2997 47.7847 14.3198 47.7847 14.3439C47.7847 14.368 47.7928 14.3887 47.8089 14.4059C47.8261 14.422 47.8467 14.43 47.8708 14.43H48.043C48.0672 14.43 48.0872 14.422 48.1033 14.4059C48.1205 14.3887 48.1291 14.368 48.1291 14.3439C48.1291 14.3198 48.1205 14.2997 48.1033 14.2837C48.0872 14.2664 48.0672 14.2578 48.043 14.2578H47.8708C47.8467 14.2578 47.8261 14.2664 47.8089 14.2837ZM47.8089 14.0942C47.7928 14.1103 47.7847 14.1304 47.7847 14.1545C47.7847 14.1786 47.7928 14.1993 47.8089 14.2165C47.8261 14.2326 47.8467 14.2406 47.8708 14.2406H48.043C48.0672 14.2406 48.0872 14.2326 48.1033 14.2165C48.1205 14.1993 48.1291 14.1786 48.1291 14.1545C48.1291 14.1304 48.1205 14.1103 48.1033 14.0942C48.0872 14.077 48.0672 14.0684 48.043 14.0684H47.8708C47.8467 14.0684 47.8261 14.077 47.8089 14.0942ZM47.9811 14.6625C47.965 14.6786 47.9569 14.6986 47.9569 14.7228C47.9569 14.7469 47.965 14.7675 47.9811 14.7847C47.9983 14.8008 48.0189 14.8088 48.043 14.8088H48.2152C48.2393 14.8088 48.2594 14.8008 48.2755 14.7847C48.2927 14.7675 48.3013 14.7469 48.3013 14.7228C48.3013 14.6986 48.2927 14.6786 48.2755 14.6625C48.2594 14.6453 48.2393 14.6367 48.2152 14.6367H48.043C48.0189 14.6367 47.9983 14.6453 47.9811 14.6625ZM47.9811 13.9048C47.965 13.9209 47.9569 13.941 47.9569 13.9651C47.9569 13.9892 47.965 14.0099 47.9811 14.0271C47.9983 14.0432 48.0189 14.0512 48.043 14.0512H48.2152C48.2393 14.0512 48.2594 14.0432 48.2755 14.0271C48.2927 14.0099 48.3013 13.9892 48.3013 13.9651C48.3013 13.941 48.2927 13.9209 48.2755 13.9048C48.2594 13.8876 48.2393 13.879 48.2152 13.879H48.043C48.0189 13.879 47.9983 13.8876 47.9811 13.9048ZM48.1532 14.8519C48.1372 14.868 48.1291 14.8881 48.1291 14.9122C48.1291 14.9363 48.1372 14.9569 48.1532 14.9742C48.1705 14.9902 48.1911 14.9983 48.2152 14.9983H48.5596C48.5837 14.9983 48.6038 14.9902 48.6199 14.9742C48.6371 14.9569 48.6457 14.9363 48.6457 14.9122C48.6457 14.8881 48.6371 14.868 48.6199 14.8519C48.6038 14.8347 48.5837 14.8261 48.5596 14.8261H48.2152C48.1911 14.8261 48.1705 14.8347 48.1532 14.8519ZM48.1532 13.7154C48.1372 13.7315 48.1291 13.7516 48.1291 13.7757C48.1291 13.7998 48.1372 13.8204 48.1532 13.8377C48.1705 13.8537 48.1911 13.8618 48.2152 13.8618H48.5596C48.5837 13.8618 48.6038 13.8537 48.6199 13.8377C48.6371 13.8204 48.6457 13.7998 48.6457 13.7757C48.6457 13.7516 48.6371 13.7315 48.6199 13.7154C48.6038 13.6982 48.5837 13.6896 48.5596 13.6896H48.2152C48.1911 13.6896 48.1705 13.6982 48.1532 13.7154ZM48.4976 14.6625C48.4816 14.6786 48.4735 14.6986 48.4735 14.7228C48.4735 14.7469 48.4816 14.7675 48.4976 14.7847C48.5149 14.8008 48.5355 14.8088 48.5596 14.8088H48.7318C48.7559 14.8088 48.776 14.8008 48.7921 14.7847C48.8093 14.7675 48.8179 14.7469 48.8179 14.7228C48.8179 14.6986 48.8093 14.6786 48.7921 14.6625C48.776 14.6453 48.7559 14.6367 48.7318 14.6367H48.5596C48.5355 14.6367 48.5149 14.6453 48.4976 14.6625ZM48.4976 13.9048C48.4816 13.9209 48.4735 13.941 48.4735 13.9651C48.4735 13.9892 48.4816 14.0099 48.4976 14.0271C48.5149 14.0432 48.5355 14.0512 48.5596 14.0512H48.7318C48.7559 14.0512 48.776 14.0432 48.7921 14.0271C48.8093 14.0099 48.8179 13.9892 48.8179 13.9651C48.8179 13.941 48.8093 13.9209 48.7921 13.9048C48.776 13.8876 48.7559 13.879 48.7318 13.879H48.5596C48.5355 13.879 48.5149 13.8876 48.4976 13.9048ZM48.6698 14.4731C48.6538 14.4891 48.6457 14.5092 48.6457 14.5333C48.6457 14.5574 48.6538 14.5781 48.6698 14.5953C48.6871 14.6114 48.7077 14.6194 48.7318 14.6194H48.904C48.9281 14.6194 48.9482 14.6114 48.9643 14.5953C48.9815 14.5781 48.9901 14.5574 48.9901 14.5333C48.9901 14.5092 48.9815 14.4891 48.9643 14.4731C48.9482 14.4558 48.9281 14.4472 48.904 14.4472H48.7318C48.7077 14.4472 48.6871 14.4558 48.6698 14.4731ZM48.6698 14.2837C48.6538 14.2997 48.6457 14.3198 48.6457 14.3439C48.6457 14.368 48.6538 14.3887 48.6698 14.4059C48.6871 14.422 48.7077 14.43 48.7318 14.43H48.904C48.9281 14.43 48.9482 14.422 48.9643 14.4059C48.9815 14.3887 48.9901 14.368 48.9901 14.3439C48.9901 14.3198 48.9815 14.2997 48.9643 14.2837C48.9482 14.2664 48.9281 14.2578 48.904 14.2578H48.7318C48.7077 14.2578 48.6871 14.2664 48.6698 14.2837ZM48.6698 14.0942C48.6538 14.1103 48.6457 14.1304 48.6457 14.1545C48.6457 14.1786 48.6538 14.1993 48.6698 14.2165C48.6871 14.2326 48.7077 14.2406 48.7318 14.2406H48.904C48.9281 14.2406 48.9482 14.2326 48.9643 14.2165C48.9815 14.1993 48.9901 14.1786 48.9901 14.1545C48.9901 14.1304 48.9815 14.1103 48.9643 14.0942C48.9482 14.077 48.9281 14.0684 48.904 14.0684H48.7318C48.7077 14.0684 48.6871 14.077 48.6698 14.0942Z" fill="white"/>
<path d="M48.3909 14.2578C48.415 14.2578 48.4351 14.2664 48.4511 14.2837C48.4684 14.2997 48.477 14.3198 48.477 14.3439C48.477 14.368 48.4684 14.3887 48.4511 14.4059C48.4351 14.422 48.415 14.43 48.3909 14.43H48.3892C48.3651 14.43 48.3444 14.422 48.3272 14.4059C48.3111 14.3887 48.3031 14.368 48.3031 14.3439C48.3031 14.3198 48.3111 14.2997 48.3272 14.2837C48.3444 14.2664 48.3651 14.2578 48.3892 14.2578H48.3909Z" fill="#FF0000"/>
</svg>
