<svg width="198" height="49" viewBox="0 0 198 49" fill="none" xmlns="http://www.w3.org/2000/svg">
<path d="M155.017 39.3903C154.977 39.473 154.894 39.5257 154.802 39.5257H152.446C152.338 39.5257 152.25 39.4376 152.25 39.3291C152.25 39.2703 152.276 39.2146 152.321 39.1772L152.681 38.8814C152.954 38.6568 153.112 38.3218 153.112 37.9682V35.2964C153.112 35.0611 152.964 34.8514 152.742 34.7731L152.409 34.6556C152.277 34.6086 152.214 34.4569 152.274 34.3296C152.313 34.2469 152.397 34.1942 152.489 34.1942H154.845C154.953 34.1942 155.041 34.2822 155.041 34.3908C155.041 34.4496 155.015 34.5053 154.97 34.5426L154.61 34.8385C154.337 35.0631 154.179 35.3981 154.179 35.7517V38.4235C154.179 38.6588 154.327 38.8685 154.549 38.9468L154.882 39.0643C155.014 39.1113 155.077 39.263 155.017 39.3903Z" fill="#8800FF"/>
<path d="M160.626 39.2318C160.626 39.4581 160.403 39.6172 160.189 39.5436C160.154 39.5317 160.118 39.5257 160.082 39.5257H156.433C156.323 39.5257 156.234 39.4365 156.234 39.3265C156.234 39.2691 156.259 39.2145 156.302 39.1767C157.021 38.5447 157.57 38.0385 157.95 37.6583C158.347 37.2661 158.622 36.9455 158.776 36.6965C158.931 36.4476 159.008 36.2172 159.008 36.0056C159.008 35.6819 158.901 35.4174 158.688 35.212C158.474 35.0003 158.199 34.8945 157.861 34.8945C157.535 34.8945 157.145 35.0774 156.69 35.4431C156.591 35.5228 156.444 35.5081 156.368 35.4064C156.298 35.3132 156.313 35.1814 156.403 35.1068L157.307 34.3548C157.45 34.2364 157.613 34.1403 157.797 34.1181C157.892 34.1066 157.996 34.1008 158.11 34.1008C158.519 34.1008 158.877 34.16 159.185 34.2782C159.5 34.3903 159.74 34.549 159.906 34.7544C160.077 34.9599 160.163 35.1995 160.163 35.4734C160.163 35.8788 159.82 36.4511 159.133 37.1903C158.721 37.6346 159.012 38.3959 159.619 38.3959H159.739C159.941 38.3959 160.121 38.271 160.192 38.0823L160.301 37.7928C160.333 37.7076 160.428 37.6636 160.513 37.6937C160.581 37.7172 160.626 37.7806 160.626 37.8518V39.2318Z" fill="#8800FF"/>
<path d="M162.005 41.8183C161.931 41.9172 161.789 41.9339 161.694 41.8551C161.604 41.78 161.59 41.6464 161.661 41.5526C161.896 41.2425 162.069 40.9683 162.18 40.7302C162.255 40.5731 162.312 40.4048 162.352 40.2253C162.408 39.9706 162.272 39.7198 162.051 39.5825L161.835 39.4491C161.762 39.4038 161.718 39.324 161.718 39.2381C161.718 39.1452 161.77 39.0601 161.852 39.0175L162.29 38.7919C162.772 38.5431 163.359 38.8129 163.485 39.3408C163.543 39.5822 163.49 39.8366 163.341 40.0351L162.005 41.8183Z" fill="#8800FF"/>
<path d="M169.642 38.9561C169.287 38.9561 169 39.2433 169 39.5976V40.648C169 40.8476 168.889 41.0304 168.711 41.122C168.356 41.3053 167.933 41.0476 167.933 40.648V39.9281C167.933 39.3913 167.498 38.9561 166.961 38.9561H164.859C164.74 38.9561 164.644 38.8598 164.644 38.741C164.644 38.6928 164.66 38.6461 164.69 38.6082L167.846 34.5849C167.904 34.5121 167.976 34.4523 168.058 34.4098C168.488 34.1879 169 34.4999 169 34.9835V37.7647C169 38.0566 169.237 38.2932 169.528 38.2932H169.838C170.081 38.2932 170.242 38.5457 170.139 38.7655C170.084 38.8818 169.967 38.9561 169.838 38.9561H169.642ZM167.933 37.5584C167.933 36.8558 167.042 36.5539 166.615 37.1118C166.245 37.5952 166.59 38.2932 167.198 38.2932C167.604 38.2932 167.933 37.9642 167.933 37.5584Z" fill="#8800FF"/>
<path d="M177.166 38.4301C177.166 38.6617 177.311 38.8684 177.529 38.9468L177.852 39.063C177.985 39.1108 178.047 39.2625 177.987 39.3898C177.947 39.4728 177.863 39.5257 177.771 39.5257H175.416C175.307 39.5257 175.219 39.4376 175.219 39.3289C175.219 39.2702 175.245 39.2146 175.291 39.1772L175.637 38.8908C175.902 38.672 176.055 38.3465 176.055 38.0031V37.429C176.055 37.0717 175.959 36.721 175.778 36.4132L173.86 33.1614C173.801 33.0608 173.719 32.9757 173.62 32.9128L173.271 32.69C173.155 32.6159 173.112 32.4668 173.171 32.3424C173.217 32.2473 173.313 32.1867 173.418 32.1867H175.752C175.86 32.1867 175.948 32.2746 175.948 32.3829C175.948 32.4419 175.922 32.4978 175.876 32.5351L175.653 32.716C175.347 32.9648 175.269 33.3996 175.468 33.7399L175.842 34.3777C176.32 35.1938 177.496 35.204 177.988 34.3962L178.327 33.8397C178.549 33.4766 178.394 33.0016 178.001 32.8391L177.565 32.6591C177.435 32.6053 177.377 32.4537 177.437 32.3267C177.478 32.2412 177.564 32.1867 177.659 32.1867H180.02C180.123 32.1867 180.207 32.2705 180.207 32.3738C180.207 32.4376 180.174 32.497 180.12 32.5314L179.694 32.8043C179.552 32.8956 179.432 33.0182 179.344 33.1629L177.457 36.2644C177.267 36.5776 177.166 36.9371 177.166 37.3037V38.4301Z" fill="#8800FF"/>
<path d="M180.112 38.0784C180.289 38.0784 180.435 38.1469 180.547 38.2838C180.666 38.4208 180.725 38.592 180.725 38.7974C180.725 38.9406 180.684 39.0775 180.601 39.2082C180.518 39.3327 180.414 39.4323 180.289 39.507C180.165 39.5817 180.043 39.619 179.925 39.619C179.747 39.619 179.599 39.5506 179.48 39.4136C179.368 39.2767 179.311 39.1055 179.311 38.9001C179.311 38.7569 179.353 38.6231 179.436 38.4986C179.519 38.3679 179.623 38.2652 179.747 38.1905C179.872 38.1158 179.993 38.0784 180.112 38.0784Z" fill="#8800FF"/>
<path d="M185.969 32C186.597 32 187.152 32.1587 187.632 32.4762C188.118 32.7936 188.494 33.2325 188.761 33.7927C189.027 34.3529 189.161 34.9879 189.161 35.6975C189.161 36.4258 188.959 37.098 188.556 37.7143C188.153 38.3305 187.652 38.8192 187.054 39.1802C186.455 39.535 185.883 39.7124 185.338 39.7124C184.71 39.7124 184.153 39.5568 183.667 39.2456C183.186 38.9281 182.813 38.4893 182.546 37.929C182.28 37.3688 182.146 36.7339 182.146 36.0243C182.146 35.296 182.348 34.6237 182.751 34.0075C183.154 33.385 183.655 32.8964 184.253 32.5415C184.852 32.1805 185.424 32 185.969 32ZM185.453 32.7843C185.062 32.7843 184.704 32.9057 184.378 33.1485C184.058 33.385 183.806 33.718 183.622 34.1475C183.438 34.5708 183.346 35.047 183.346 35.5761C183.346 36.1861 183.438 36.7463 183.622 37.2568C183.806 37.761 184.084 38.1656 184.458 38.4706C184.837 38.7756 185.302 38.9281 185.854 38.9281C186.245 38.9281 186.6 38.8098 186.92 38.5733C187.246 38.3305 187.501 37.9975 187.685 37.5742C187.869 37.1447 187.961 36.6654 187.961 36.1363C187.961 35.5201 187.869 34.9599 187.685 34.4557C187.501 33.9452 187.223 33.5406 186.849 33.2418C186.476 32.9368 186.011 32.7843 185.453 32.7843Z" fill="#8800FF"/>
<path d="M12.85 9.54636C12.85 9.56331 12.8613 9.57823 12.8776 9.58294C14.1478 9.95054 15.1469 10.5646 15.875 11.425C16.6083 12.2917 16.975 13.2917 16.975 14.425C16.975 15.475 16.55 16.4667 15.7 17.4C14.8667 18.3167 13.8167 19.05 12.55 19.6C11.3 20.15 10.1083 20.425 8.975 20.425C8.14167 20.425 7.325 20.3833 6.525 20.3C5.19167 20.2167 4.15833 20.175 3.425 20.175H0.771725C0.483584 20.175 0.25 19.9414 0.25 19.6533C0.25 19.4934 0.323348 19.3423 0.449007 19.2433L1.83712 18.1506C2.31883 17.7714 2.6 17.1922 2.6 16.5791V3.40236C2.6 2.77463 2.1964 2.21805 1.59974 2.02299L0.693252 1.72664C0.328097 1.60726 0.154372 1.19126 0.32618 0.847641C0.432708 0.634584 0.650468 0.500001 0.888673 0.500001H3.4C4.91667 0.500001 6.40833 0.450001 7.875 0.35C9.00833 0.283333 9.84167 0.25 10.375 0.25C11.4917 0.25 12.475 0.466667 13.325 0.9C14.175 1.33333 14.825 1.925 15.275 2.675C15.7417 3.40833 15.975 4.23333 15.975 5.15C15.975 5.98333 15.6833 6.78333 15.1 7.55C14.537 8.29509 13.7931 8.94972 12.8683 9.51387C12.857 9.52078 12.85 9.5331 12.85 9.54636ZM12.6 6.4C12.6 5.08333 12.25 4.00833 11.55 3.175C10.85 2.34167 9.80833 1.925 8.425 1.925C7.7847 1.925 7.1854 2.04116 6.6271 2.27348C6.02819 2.5227 5.725 3.16055 5.725 3.80924V7.4C5.725 8.50457 6.62043 9.4 7.725 9.4H9.3C10.3333 9.4 11.1417 9.14167 11.725 8.625C12.3083 8.09167 12.6 7.34167 12.6 6.375V6.4ZM9.675 18.6125C9.675 18.6056 9.68067 18.6 9.68757 18.6C10.8816 18.5979 11.8274 18.2979 12.525 17.7C13.2417 17.1 13.6 16.2917 13.6 15.275C13.6 13.975 13.2167 12.925 12.45 12.125C11.7296 11.3565 10.6631 10.9341 9.2507 10.8577C9.13398 10.8513 9.01688 10.8597 8.90022 10.867C8.81356 10.8723 8.71349 10.875 8.6 10.875H7.725C6.62043 10.875 5.725 11.7704 5.725 12.875V16.5997C5.725 17.4156 6.21774 18.1682 7.01327 18.3496C7.81542 18.5324 8.69848 18.6242 9.66245 18.625C9.66936 18.625 9.675 18.6194 9.675 18.6125Z" fill="#DAAFFF"/>
<path d="M27.752 19.7991C27.6445 20.0141 27.4247 20.15 27.1842 20.15H20.4983C20.2101 20.15 19.9766 19.9164 19.9766 19.6283C19.9766 19.4684 20.0499 19.3173 20.1756 19.2183L21.5637 18.1256C22.0454 17.7464 22.3266 17.1672 22.3266 16.5541V3.43014C22.3266 2.79966 21.9241 2.23955 21.3265 2.03845L20.4157 1.73193C20.0516 1.6094 19.8799 1.19323 20.0517 0.849628C20.1589 0.635354 20.3779 0.500001 20.6175 0.500001H27.306C27.5935 0.500001 27.8266 0.733087 27.8266 1.02061C27.8266 1.18113 27.7525 1.33268 27.6259 1.43133L26.2225 2.52446C25.736 2.90341 25.4516 3.4856 25.4516 4.10227V17.1828C25.4516 17.8212 25.8572 18.3891 26.461 18.5961L27.3901 18.9146C27.7535 19.0392 27.9238 19.4555 27.752 19.7991Z" fill="#DAAFFF"/>
<path d="M41.8164 0C43.5831 0 45.1414 0.425 46.4914 1.275C47.8581 2.125 48.9164 3.3 49.6664 4.8C50.4164 6.3 50.7914 8 50.7914 9.9C50.7914 11.85 50.2247 13.65 49.0914 15.3C47.9581 16.95 46.5497 18.2583 44.8664 19.225C43.1831 20.175 41.5747 20.65 40.0414 20.65C38.2747 20.65 36.7081 20.2333 35.3414 19.4C33.9914 18.55 32.9414 17.375 32.1914 15.875C31.4414 14.375 31.0664 12.675 31.0664 10.775C31.0664 8.825 31.6331 7.025 32.7664 5.375C33.8997 3.70833 35.3081 2.4 36.9914 1.45C38.6747 0.483334 40.2831 0 41.8164 0ZM40.3664 2.1C39.2664 2.1 38.2581 2.425 37.3414 3.075C36.4414 3.70833 35.7331 4.6 35.2164 5.75C34.6997 6.88333 34.4414 8.15833 34.4414 9.575C34.4414 11.2083 34.6997 12.7083 35.2164 14.075C35.7331 15.425 36.5164 16.5083 37.5664 17.325C38.6331 18.1417 39.9414 18.55 41.4914 18.55C42.5914 18.55 43.5914 18.2333 44.4914 17.6C45.4081 16.95 46.1247 16.0583 46.6414 14.925C47.1581 13.775 47.4164 12.4917 47.4164 11.075C47.4164 9.425 47.1581 7.925 46.6414 6.575C46.1247 5.20833 45.3414 4.125 44.2914 3.325C43.2414 2.50833 41.9331 2.1 40.3664 2.1Z" fill="#DAAFFF"/>
<path d="M64.0166 6.625C64.5166 6.625 64.9249 6.80833 65.2416 7.175C65.5749 7.54167 65.7416 8 65.7416 8.55C65.7416 8.93333 65.6249 9.3 65.3916 9.65C65.1583 9.98333 64.8666 10.25 64.5166 10.45C64.1666 10.65 63.8249 10.75 63.4916 10.75C62.9916 10.75 62.5749 10.5667 62.2416 10.2C61.9249 9.83333 61.7666 9.375 61.7666 8.825C61.7666 8.44167 61.8833 8.08333 62.1166 7.75C62.3499 7.4 62.6416 7.125 62.9916 6.925C63.3416 6.725 63.6833 6.625 64.0166 6.625ZM64.0166 16.275C64.5166 16.275 64.9249 16.4583 65.2416 16.825C65.5749 17.1917 65.7416 17.65 65.7416 18.2C65.7416 18.5833 65.6249 18.95 65.3916 19.3C65.1583 19.6333 64.8666 19.9 64.5166 20.1C64.1666 20.3 63.8249 20.4 63.4916 20.4C62.9916 20.4 62.5749 20.2167 62.2416 19.85C61.9249 19.4833 61.7666 19.025 61.7666 18.475C61.7666 18.0917 61.8833 17.7333 62.1166 17.4C62.3499 17.05 62.6416 16.775 62.9916 16.575C63.3416 16.375 63.6833 16.275 64.0166 16.275Z" fill="#DAAFFF"/>
<path d="M103.121 2.6234C102.827 2.85321 102.603 3.16069 102.474 3.51109L96.9303 18.6416C96.7637 19.0962 96.428 19.469 95.9933 19.6822C94.9745 20.1818 93.7487 19.6712 93.3858 18.5961L91.9437 14.3244C91.3364 12.5253 88.7988 12.5058 88.1639 14.2954L86.63 18.619C86.4638 19.0876 86.1207 19.4726 85.6743 19.6915C84.6578 20.19 83.4336 19.6963 83.0473 18.6321L77.5879 3.59232C77.4312 3.16063 77.1308 2.79603 76.737 2.55975L75.5457 1.84498C75.2212 1.65032 75.1014 1.23868 75.2706 0.900265C75.3932 0.654957 75.644 0.500001 75.9182 0.500001H81.8036C82.0892 0.500001 82.3207 0.731531 82.3207 1.01714C82.3207 1.17951 82.2444 1.33246 82.1148 1.43017L81.5824 1.83129C80.9357 2.31853 80.68 3.16911 80.9508 3.93218L83.8194 12.014C84.4484 13.7859 86.9531 13.7895 87.5871 12.0193L89.1861 7.55487C89.3381 7.13075 89.3423 6.66777 89.1983 6.24092L88.3036 3.59013C88.1532 3.14436 87.8504 2.7659 87.4485 2.52129L86.342 1.84775C86.0191 1.65119 85.9007 1.23992 86.0698 0.9018C86.1929 0.655551 86.4446 0.500001 86.7199 0.500001H93.1006C93.3878 0.500001 93.6207 0.732865 93.6207 1.02012C93.6207 1.1809 93.5463 1.33265 93.4193 1.43117L92.5084 2.13738C91.841 2.65479 91.5705 3.53562 91.8325 4.33843L94.2409 11.7191C94.8313 13.5283 97.3763 13.5683 98.0231 11.7784L100.501 4.92216C100.882 3.86739 100.322 2.7054 99.2589 2.34716L97.4346 1.73222C97.0706 1.60951 96.899 1.19334 97.0708 0.849739C97.178 0.635397 97.3971 0.500001 97.6367 0.500001H104.325C104.612 0.500001 104.846 0.733247 104.846 1.02097C104.846 1.1813 104.772 1.3327 104.646 1.43144L103.121 2.6234Z" fill="#DAAFFF"/>
<path d="M114.129 19.7991C114.021 20.0141 113.802 20.15 113.561 20.15H106.875C106.587 20.15 106.354 19.9164 106.354 19.6283C106.354 19.4684 106.427 19.3173 106.553 19.2183L107.941 18.1256C108.422 17.7464 108.704 17.1672 108.704 16.5541V3.43014C108.704 2.79966 108.301 2.23955 107.703 2.03845L106.793 1.73193C106.429 1.6094 106.257 1.19323 106.429 0.849628C106.536 0.635354 106.755 0.500001 106.994 0.500001H113.683C113.97 0.500001 114.204 0.733087 114.204 1.02061C114.204 1.18113 114.129 1.33268 114.003 1.43133L112.599 2.52446C112.113 2.90341 111.829 3.4856 111.829 4.10227V17.1828C111.829 17.8212 112.234 18.3891 112.838 18.5961L113.767 18.9146C114.13 19.0392 114.301 19.4555 114.129 19.7991Z" fill="#DAAFFF"/>
<path d="M135.634 19.8188C135.517 20.0524 135.278 20.2 135.017 20.2H131.907C131.215 20.2 130.572 19.842 130.207 19.2535L125.437 11.5575C125.342 11.404 125.218 11.2706 125.072 11.1647L124.512 10.7595C124.285 10.5954 124.21 10.2912 124.335 10.0409C124.432 9.84729 124.63 9.725 124.847 9.725H125.893C127.027 9.725 127.918 9.44167 128.568 8.875C129.235 8.29167 129.568 7.5 129.568 6.5C129.568 5.18333 129.202 4.09167 128.468 3.225C127.735 2.34167 126.668 1.9 125.268 1.9C124.683 1.9 124.128 2.00803 123.602 2.2241C122.999 2.47166 122.693 3.11288 122.693 3.7645V17.2328C122.693 17.8712 123.099 18.4391 123.703 18.6461L124.632 18.9646C124.995 19.0892 125.166 19.5055 124.994 19.8491C124.886 20.0641 124.666 20.2 124.426 20.2H117.74C117.452 20.2 117.218 19.9664 117.218 19.6783C117.218 19.5184 117.292 19.3673 117.417 19.2683L118.805 18.1756C119.287 17.7964 119.568 17.2172 119.568 16.6041V3.42736C119.568 2.79962 119.165 2.24305 118.568 2.04799L117.662 1.75164C117.296 1.63226 117.123 1.21626 117.295 0.87264C117.401 0.659584 117.619 0.525001 117.857 0.525001H120.368C121.885 0.525001 123.377 0.475001 124.843 0.375001C125.91 0.308334 126.702 0.275001 127.218 0.275001C128.335 0.275001 129.327 0.500001 130.193 0.950001C131.077 1.4 131.752 2.00833 132.218 2.775C132.702 3.54167 132.943 4.38333 132.943 5.3C132.943 6.13333 132.685 6.93333 132.168 7.7C131.652 8.45 130.968 9.10833 130.118 9.675C129.724 9.93558 129.318 10.1662 128.9 10.367C128.468 10.5751 128.471 11.2643 128.925 11.4182C129.034 11.4549 129.126 11.5283 129.187 11.6257L132.668 17.2403C132.864 17.5571 133.145 17.8127 133.479 17.9783L135.323 18.8927C135.665 19.0622 135.805 19.4774 135.634 19.8188Z" fill="#DAAFFF"/>
<path d="M148.408 0C149.292 0 150.308 0.125 151.458 0.375001C152.005 0.492205 152.483 0.613071 152.89 0.737601C153.598 0.953684 154.008 1.63742 154.008 2.37721V5.42107C154.008 5.75461 153.738 6.025 153.404 6.025C153.19 6.025 152.992 5.91032 152.879 5.72852C151.368 3.30951 149.394 2.1 146.958 2.1C145.858 2.1 144.85 2.425 143.933 3.075C143.033 3.70833 142.325 4.6 141.808 5.75C141.292 6.88333 141.033 8.15833 141.033 9.575C141.033 11.2083 141.283 12.7 141.783 14.05C142.3 15.4 143.075 16.4833 144.108 17.3C145.158 18.1167 146.45 18.525 147.983 18.525C149.288 18.525 151.115 17.6206 153.465 15.8117C153.797 15.5568 154.278 15.6369 154.5 15.9912C154.689 16.2944 154.619 16.6918 154.336 16.9112L150.49 19.9002C150.32 20.0325 150.13 20.1382 149.924 20.2027C149.416 20.3621 148.919 20.4695 148.433 20.525C147.867 20.6083 147.25 20.65 146.583 20.65C144.833 20.65 143.283 20.225 141.933 19.375C140.583 18.525 139.533 17.3583 138.783 15.875C138.033 14.375 137.658 12.675 137.658 10.775C137.658 8.825 138.225 7.025 139.358 5.375C140.492 3.70833 141.9 2.4 143.583 1.45C145.267 0.483334 146.875 0 148.408 0Z" fill="#DAAFFF"/>
<path d="M173.057 20.1971C172.964 20.1659 172.866 20.15 172.767 20.15H158.438C158.15 20.15 157.916 19.9164 157.916 19.6283C157.916 19.4684 157.989 19.3173 158.115 19.2183L159.503 18.1256C159.985 17.7464 160.266 17.1672 160.266 16.5541V3.43015C160.266 2.79966 159.864 2.23955 159.266 2.03845L158.355 1.73193C157.991 1.6094 157.819 1.19323 157.991 0.849628C158.098 0.635353 158.317 0.500001 158.557 0.500001H172.517C172.616 0.500001 172.714 0.48409 172.807 0.452879C173.402 0.254679 174.016 0.697253 174.016 1.32402V5.41538C174.016 5.64507 173.869 5.84899 173.651 5.92163C173.424 5.99748 173.173 5.91218 173.04 5.71312L170.885 2.50911C170.514 1.95646 169.892 1.625 169.226 1.625H165.391C164.286 1.625 163.391 2.52043 163.391 3.625V7.55C163.391 8.65457 164.286 9.55 165.391 9.55H166.154C166.873 9.55 167.536 9.16479 167.892 8.54082L169 6.59736C169.087 6.44442 169.25 6.35 169.426 6.35C169.697 6.35 169.916 6.56948 169.916 6.84023V13.5409C169.916 13.7916 169.774 14.0208 169.55 14.133C169.207 14.3044 168.791 14.1496 168.643 13.7958L167.854 11.9049C167.543 11.1601 166.815 10.675 166.008 10.675H165.391C164.286 10.675 163.391 11.5704 163.391 12.675V17.025C163.391 18.1296 164.286 19.025 165.391 19.025H169.128C169.793 19.025 170.414 18.6949 170.786 18.1441L173.289 14.4361C173.423 14.2374 173.673 14.1524 173.901 14.2282C174.119 14.301 174.266 14.5051 174.266 14.735V19.326C174.266 19.9527 173.652 20.3953 173.057 20.1971Z" fill="#DAAFFF"/>
<path d="M188.527 0.2625C188.527 0.269404 188.533 0.275 188.54 0.275008C190.251 0.277033 191.764 0.693697 193.077 1.525C194.411 2.34167 195.436 3.48333 196.152 4.95C196.886 6.41667 197.252 8.075 197.252 9.925C197.252 11.825 196.694 13.5833 195.577 15.2C194.477 16.8 193.102 18.075 191.452 19.025C189.819 19.9583 188.252 20.425 186.752 20.425C185.986 20.425 185.211 20.3833 184.427 20.3C183.144 20.2167 182.152 20.175 181.452 20.175H178.799C178.511 20.175 178.277 19.9414 178.277 19.6533C178.277 19.4934 178.351 19.3423 178.476 19.2433L179.864 18.1506C180.346 17.7714 180.627 17.1922 180.627 16.5791V3.40236C180.627 2.77463 180.224 2.21805 179.627 2.02299L178.721 1.72664C178.355 1.60726 178.182 1.19126 178.354 0.84764C178.46 0.634584 178.678 0.500001 178.916 0.500001H181.427C183.011 0.500001 184.552 0.450001 186.052 0.35C187.177 0.283861 187.998 0.25053 188.515 0.250006C188.522 0.249999 188.527 0.255596 188.527 0.2625ZM187.452 18.575C188.652 18.575 189.744 18.2583 190.727 17.625C191.711 16.975 192.477 16.0833 193.027 14.95C193.594 13.8 193.877 12.5167 193.877 11.1C193.877 9.4 193.611 7.85833 193.077 6.475C192.544 5.075 191.727 3.95833 190.627 3.125C189.544 2.29167 188.194 1.875 186.577 1.875C185.908 1.875 185.271 2.00515 184.666 2.26544C184.063 2.52498 183.752 3.16662 183.752 3.82291V16.6082C183.752 17.4199 184.24 18.1702 185.034 18.341C185.759 18.497 186.565 18.575 187.452 18.575Z" fill="#DAAFFF"/>
<path d="M9.525 45.4C9.19167 45.4 8.88333 45.05 8.6 44.35C8.33333 43.65 8.16667 42.925 8.1 42.175C8.03333 41.4583 7.98333 40.0083 7.95 37.825C7.93333 37.475 7.925 37.125 7.925 36.775C7.925 36.5441 7.62282 36.4868 7.52594 36.6963C7.09403 37.6305 6.56038 38.6567 5.925 39.775C5.09167 41.2417 4.25 42.5 3.4 43.55C2.56667 44.6 1.88333 45.125 1.35 45.125C0.8 45.125 0.433333 44.8333 0.25 44.25C0.0833333 43.6667 0 42.7417 0 41.475C0 40.2917 0.15 38.95 0.45 37.45C0.766667 35.95 1.125 34.8083 1.525 34.025C1.69167 33.675 1.83333 33.4417 1.95 33.325C2.06667 33.1917 2.2 33.125 2.35 33.125C2.76667 33.125 2.975 33.2083 2.975 33.375C2.975 33.4583 2.89167 33.65 2.725 33.95C2.275 34.7833 1.88333 35.7833 1.55 36.95C1.21667 38.1167 1.05 39.6833 1.05 41.65C1.05 42.9667 1.23333 43.625 1.6 43.625C2.03333 43.625 2.61667 43.15 3.35 42.2C4.1 41.2333 4.84167 40.0833 5.575 38.75C6.30833 37.4167 6.86667 36.2583 7.25 35.275C7.38333 34.9417 7.53333 34.425 7.7 33.725C7.75 33.4417 7.8 33.2417 7.85 33.125C7.9 32.9917 7.95833 32.925 8.025 32.925C8.20833 32.925 8.40833 33 8.625 33.15C8.84167 33.3 8.95 33.4583 8.95 33.625C8.95 34.425 8.975 35.8 9.025 37.75C9.09167 39.6833 9.16667 41.025 9.25 41.775C9.31667 42.425 9.43333 42.9333 9.6 43.3C9.78333 43.6667 9.95833 43.9583 10.125 44.175C10.2917 44.375 10.375 44.5 10.375 44.55C10.375 44.8167 10.3 45.025 10.15 45.175C10 45.325 9.79167 45.4 9.525 45.4Z" fill="#A947FF"/>
<path d="M23.6982 42.2V42.575C23.7316 43.125 23.7232 43.6167 23.6732 44.05C23.6399 44.4167 23.5566 44.75 23.4232 45.05C23.3066 45.35 23.1232 45.5 22.8732 45.5C22.7399 45.5 22.6232 45.4417 22.5232 45.325C22.4232 45.2083 22.3399 45.0833 22.2732 44.95C22.2066 44.8 22.1566 44.6583 22.1232 44.525C22.0899 44.3917 22.0732 44.3083 22.0732 44.275C22.0732 44.0917 22.0899 43.85 22.1232 43.55C22.1566 43.25 22.1899 42.9417 22.2232 42.625C22.2566 42.2917 22.2899 41.9667 22.3232 41.65C22.3732 41.3333 22.4149 41.05 22.4482 40.8C22.5316 39.9833 22.5899 39.25 22.6232 38.6C22.6242 38.5813 22.6251 38.5626 22.6261 38.5439C22.639 38.2851 22.1832 38.1904 22.0732 38.425C21.8232 38.9417 21.5399 39.4 21.2232 39.8C20.9066 40.1833 20.5482 40.4917 20.1482 40.725C19.7649 40.9583 19.3399 41.075 18.8732 41.075C18.3899 41.075 17.9316 40.9417 17.4982 40.675C17.0649 40.3917 16.6649 40.025 16.2982 39.575C15.9316 39.125 15.6066 38.6167 15.3232 38.05C15.3037 38.0073 15.2845 37.9646 15.2655 37.9219C15.1438 37.6476 14.6182 37.7256 14.5982 38.025C14.5816 38.525 14.5649 39.0083 14.5482 39.475C14.5316 39.9417 14.5149 40.4333 14.4982 40.95C14.4982 41.45 14.4982 42.0417 14.4982 42.725C14.4982 43.0417 14.5232 43.3167 14.5732 43.55C14.6399 43.7833 14.6982 44 14.7482 44.2C14.8149 44.3833 14.8732 44.5667 14.9232 44.75C14.9899 44.9167 15.0232 45.1083 15.0232 45.325C15.0232 45.475 14.9566 45.6417 14.8232 45.825C14.6899 46.025 14.4816 46.125 14.1982 46.125C14.0649 46.125 13.9482 46.025 13.8482 45.825C13.7482 45.6417 13.6649 45.4083 13.5982 45.125C13.5316 44.8583 13.4816 44.575 13.4482 44.275C13.4149 43.975 13.3982 43.725 13.3982 43.525V43.275L13.4982 41.2C13.4982 41.0167 13.5066 40.7833 13.5232 40.5C13.5399 40.2167 13.5566 39.9333 13.5732 39.65C13.5899 39.35 13.6066 39.075 13.6232 38.825C13.6399 38.5583 13.6482 38.35 13.6482 38.2C13.6149 37.5 13.5732 36.8333 13.5232 36.2C13.4899 35.5667 13.4566 34.9667 13.4232 34.4L13.3982 33.75C13.3816 33.5667 13.4566 33.4167 13.6232 33.3C13.8066 33.1667 14.0149 33.0917 14.2482 33.075C14.2962 33.075 14.3409 33.0858 14.3824 33.1073C14.5108 33.1741 14.6859 33.2208 14.8232 33.175C14.9232 33.1417 15.0066 33.125 15.0732 33.125C15.1081 33.125 15.1356 33.1279 15.1559 33.1337C15.1963 33.1453 15.2036 33.1874 15.2249 33.2236C15.2521 33.2696 15.2759 33.3283 15.2832 33.3812C15.2948 33.4652 15.3165 33.6131 15.3482 33.825C15.3982 34.1583 15.4732 34.5667 15.5732 35.05C15.6732 35.5333 15.8066 36.05 15.9732 36.6C16.1399 37.15 16.3482 37.6667 16.5982 38.15C16.8482 38.6167 17.1482 39.0083 17.4982 39.325C17.8482 39.6417 18.2566 39.8 18.7232 39.8C19.2232 39.8 19.6982 39.6167 20.1482 39.25C20.5982 38.8667 20.9899 38.3833 21.3232 37.8C21.6732 37.2 21.9482 36.55 22.1482 35.85C22.3482 35.1333 22.4482 34.4333 22.4482 33.75V33.425C22.4482 32.9583 22.4816 32.6333 22.5482 32.45C22.6149 32.25 22.6899 32.15 22.7732 32.15C22.8331 32.15 22.9229 32.0976 22.9217 32.0377C22.9188 31.8922 22.9116 31.7763 22.9003 31.6899C22.899 31.6799 22.8982 31.67 22.8982 31.66C22.8982 31.5329 22.8982 31.4212 22.8982 31.325C22.8982 31.1917 22.9816 31.075 23.1482 30.975C23.3149 30.875 23.4899 30.825 23.6732 30.825C23.9399 30.825 24.0732 31.0833 24.0732 31.6C24.0732 31.6833 24.0649 31.8083 24.0482 31.975C24.0482 32.125 24.0316 32.3833 23.9982 32.75C23.9482 34.0333 23.9066 35.15 23.8732 36.1C23.8566 37.0333 23.8399 37.8667 23.8232 38.6C23.8066 39.3167 23.7899 39.9667 23.7732 40.55C23.7566 41.1167 23.7316 41.6667 23.6982 42.2Z" fill="#A947FF"/>
<path d="M27.0263 45.9715C27.0198 45.9739 27.0129 45.975 27.0059 45.975C26.9973 45.975 26.9893 45.975 26.982 45.975C26.9596 45.975 26.9388 46 26.9164 46C26.7331 46 26.5747 45.9083 26.4414 45.725C26.3247 45.5583 26.2664 45.4083 26.2664 45.275C26.2664 45.1583 26.4414 44.9667 26.7914 44.7C27.1414 44.4333 27.5914 44.125 28.1414 43.775C28.6914 43.425 29.2997 43.05 29.9664 42.65C30.6331 42.25 31.2747 41.875 31.8914 41.525C32.5247 41.175 33.0997 40.8667 33.6164 40.6C34.1169 40.3417 34.4844 40.1538 34.7191 40.0362C34.7246 40.0334 34.7226 40.025 34.7164 40.025C33.6497 39.975 32.6747 39.925 31.7914 39.875C30.9247 39.825 30.1747 39.725 29.5414 39.575C28.9081 39.425 28.4164 39.2083 28.0664 38.925C27.7164 38.6417 27.5414 38.2417 27.5414 37.725C27.5414 37.325 27.6497 36.9 27.8664 36.45C28.0831 35.9833 28.4164 35.5167 28.8664 35.05C29.3331 34.5667 29.9331 34.1 30.6664 33.65C31.3997 33.1833 32.2831 32.7583 33.3164 32.375C33.6664 32.2417 34.0247 32.125 34.3914 32.025C34.7747 31.925 35.1497 31.8417 35.5164 31.775C35.8831 31.6917 36.2247 31.6333 36.5414 31.6C36.8581 31.5667 37.1331 31.55 37.3664 31.55C37.8831 31.55 38.1414 31.7 38.1414 32C38.1414 32.2333 38.0914 32.4167 37.9914 32.55C37.8914 32.6667 37.7664 32.725 37.6164 32.725C37.4997 32.725 37.3581 32.7083 37.1914 32.675C37.0247 32.625 36.8497 32.6 36.6664 32.6C36.5331 32.6 36.3997 32.6083 36.2664 32.625C36.2559 32.625 36.2455 32.6251 36.2353 32.6252C36.0696 32.6268 35.9636 32.7807 35.9662 32.9464C35.9665 32.9669 35.9686 32.9851 35.9721 33.0054C35.985 33.0805 35.9914 33.162 35.9914 33.25C35.9914 33.35 35.9914 33.4667 35.9914 33.6C35.9914 33.7333 35.9914 33.9 35.9914 34.1C35.9914 34.15 35.9914 34.2333 35.9914 34.35C35.9914 34.4667 35.9831 34.7 35.9664 35.05C35.9664 35.4 35.9581 35.9 35.9414 36.55C35.9261 37.1334 35.9107 37.9076 35.8954 38.8727C35.893 39.0228 35.9913 39.15 36.1414 39.15C36.2747 39.15 36.4081 39.15 36.5414 39.15C36.6747 39.15 36.7914 39.1583 36.8914 39.175C37.0081 39.1917 37.0664 39.2167 37.0664 39.25C37.0664 39.3333 37.0581 39.4167 37.0414 39.5C37.0247 39.5667 36.9747 39.65 36.8914 39.75C36.8081 39.8333 36.6747 39.9333 36.4914 40.05C36.3791 40.1286 36.2326 40.2187 36.0521 40.32C35.8779 40.4179 35.7664 40.6001 35.7664 40.8C35.7664 40.9 35.7581 41.05 35.7414 41.25C35.7247 41.4333 35.7081 41.6833 35.6914 42C35.6747 42.3 35.6497 42.7 35.6164 43.2C35.5664 44.05 35.4914 44.6667 35.3914 45.05C35.2914 45.4333 35.0581 45.625 34.6914 45.625C34.5581 45.625 34.4414 45.5917 34.3414 45.525C34.2414 45.4583 34.1914 45.35 34.1914 45.2C34.1914 45.1972 34.1914 45.1944 34.1914 45.1915C34.1914 45.1649 34.2074 45.1395 34.2145 45.1138C34.2173 45.1037 34.2181 45.0949 34.2213 45.0849C34.4183 44.4727 34.5333 43.8278 34.5664 43.15C34.6123 42.2094 33.6093 41.5903 32.8006 42.0728C32.3598 42.3358 31.9234 42.6032 31.4914 42.875C30.4581 43.525 29.3914 44.2583 28.2914 45.075C27.9581 45.325 27.6831 45.525 27.4664 45.675C27.2729 45.8363 27.1262 45.9351 27.0263 45.9715ZM33.5664 33.3C32.6831 33.6167 31.9331 33.9667 31.3164 34.35C30.6997 34.7333 30.1997 35.125 29.8164 35.525C29.4331 35.9083 29.1497 36.275 28.9664 36.625C28.7997 36.975 28.7164 37.275 28.7164 37.525C28.7164 37.8083 28.8164 38.0417 29.0164 38.225C29.2331 38.4083 29.5164 38.5583 29.8664 38.675C30.2164 38.775 30.6081 38.85 31.0414 38.9C31.4747 38.95 31.9164 38.9917 32.3664 39.025C32.8164 39.0417 33.2497 39.0583 33.6664 39.075C34.2763 39.075 34.8116 38.6087 34.8359 37.9993C34.8544 37.536 34.8729 37.078 34.8914 36.625C34.9247 35.8083 34.9414 34.975 34.9414 34.125C34.9414 33.9417 34.9331 33.725 34.9164 33.475C34.9164 33.463 34.9164 33.4511 34.9164 33.4394C34.9155 33.1669 34.657 32.9887 34.3914 33.05C34.1747 33.0833 33.8997 33.1667 33.5664 33.3Z" fill="#A947FF"/>
<path d="M46.5391 28.525C46.2724 29.5083 45.7807 31.0917 45.0641 33.275C44.0807 36.4083 43.3807 38.6833 42.9641 40.1C42.2641 42.5 41.7641 44.6 41.4641 46.4C41.3807 46.9333 41.3057 47.3 41.2391 47.5C41.1891 47.6667 41.1057 47.8 40.9891 47.9C40.8724 48 40.7391 48.05 40.5891 48.05C40.5057 48.05 40.4391 48.0417 40.3891 48.025C40.1891 47.975 40.0891 47.6583 40.0891 47.075C40.0891 46.425 40.1974 45.575 40.4141 44.525C40.6307 43.475 40.8057 42.7333 40.9391 42.3C41.2891 41.0667 41.7474 39.5917 42.3141 37.875C42.4141 37.5583 42.6057 36.9583 42.8891 36.075C43.1891 35.175 43.4557 34.3 43.6891 33.45C43.7891 33.1167 43.9724 32.4167 44.2391 31.35L44.9641 28.7C45.2141 27.8167 45.4724 27.0417 45.7391 26.375C45.8724 26.125 46.0557 26 46.2891 26C46.3724 26 46.4391 26.0083 46.4891 26.025C46.7224 26.0917 46.8391 26.35 46.8391 26.8C46.8391 27.2667 46.7391 27.8417 46.5391 28.525Z" fill="#A947FF"/>
<path d="M62.5705 42.4C62.5705 42.5333 62.5622 42.675 62.5455 42.825C62.5455 42.975 62.5372 43.175 62.5205 43.425C62.5038 43.675 62.4788 44 62.4455 44.4C62.4122 44.7833 62.3622 45.2833 62.2955 45.9C62.2122 46.75 61.9372 47.175 61.4705 47.175C61.3705 47.175 61.2788 47.1083 61.1955 46.975C61.1122 46.8417 61.0455 46.6833 60.9955 46.5C60.9455 46.3333 60.9038 46.15 60.8705 45.95C60.8372 45.7667 60.8205 45.6167 60.8205 45.5C60.8205 45.2667 60.8455 44.9333 60.8955 44.5C60.9455 44.05 61.0038 43.575 61.0705 43.075C61.1538 42.5583 61.2288 42.05 61.2955 41.55C61.3788 41.0333 61.4455 40.5833 61.4955 40.2C61.6122 39.3333 61.7038 38.625 61.7705 38.075C61.8372 37.525 61.8872 37.0333 61.9205 36.6C61.9705 36.15 62.0122 35.7167 62.0455 35.3C62.0788 34.8667 62.1205 34.3333 62.1705 33.7C62.1705 33.6 62.1788 33.5167 62.1955 33.45C61.8288 34.3833 61.4205 35.2833 60.9705 36.15C60.5372 37 60.0622 37.7667 59.5455 38.45C59.0288 39.1167 58.4788 39.65 57.8955 40.05C57.3288 40.45 56.7205 40.65 56.0705 40.65C55.4872 40.65 54.9538 40.425 54.4705 39.975C54.0038 39.5083 53.5872 38.9083 53.2205 38.175C52.8705 37.4417 52.5705 36.625 52.3205 35.725C52.22 35.3563 51.576 35.4055 51.5546 35.787C51.5515 35.8416 51.5485 35.8959 51.5455 35.95C51.4955 36.85 51.4455 37.725 51.3955 38.575C51.3455 39.425 51.2955 40.2833 51.2455 41.15C51.2122 42 51.1705 42.9083 51.1205 43.875C51.1205 43.884 51.1204 43.893 51.12 43.9021C51.1161 44.0182 51.0955 44.1338 51.0955 44.25C51.0955 44.6333 51.1205 44.9667 51.1705 45.25C51.2205 45.5333 51.2705 45.8 51.3205 46.05C51.3872 46.3 51.4455 46.5333 51.4955 46.75C51.5455 46.9833 51.5705 47.225 51.5705 47.475C51.5705 47.6917 51.5038 47.9333 51.3705 48.2C51.2372 48.4833 51.0038 48.625 50.6705 48.625C50.5205 48.625 50.3955 48.5083 50.2955 48.275C50.1955 48.0417 50.1122 47.7583 50.0455 47.425C49.9955 47.0917 49.9538 46.7417 49.9205 46.375C49.9038 46.0083 49.8955 45.6833 49.8955 45.4C49.8955 45.2667 49.8955 45.1417 49.8955 45.025C49.8955 44.9083 49.9038 44.7917 49.9205 44.675L50.1205 41.825C50.2038 40.575 50.2705 39.6167 50.3205 38.95C50.3705 38.2667 50.4038 37.7333 50.4205 37.35C50.4538 36.9667 50.4705 36.6667 50.4705 36.45C50.4705 36.2167 50.4705 35.9167 50.4705 35.55C50.4705 34.7333 50.4622 33.9583 50.4455 33.225C50.4288 32.4917 50.4205 31.8 50.4205 31.15V30.225C50.4205 29.975 50.5122 29.775 50.6955 29.625C50.8955 29.4583 51.1205 29.375 51.3705 29.375C51.4272 29.375 51.4761 29.3868 51.5171 29.4105C51.592 29.4537 51.6832 29.4937 51.7606 29.455C51.7672 29.4517 51.7741 29.4488 51.7811 29.4465C51.9256 29.3988 52.0304 29.375 52.0955 29.375C52.147 29.375 52.1886 29.3899 52.2202 29.4198C52.2393 29.4378 52.2527 29.4565 52.2701 29.4762C52.3225 29.535 52.3484 29.6169 52.3577 29.6951C52.3728 29.8228 52.4021 30.0494 52.4455 30.375C52.5122 30.875 52.6122 31.5 52.7455 32.25C52.8788 32.9833 53.0455 33.7833 53.2455 34.65C53.4455 35.5 53.6955 36.2917 53.9955 37.025C54.2955 37.7583 54.6372 38.375 55.0205 38.875C55.4038 39.3583 55.8455 39.6 56.3455 39.6C56.6622 39.6 56.9955 39.4667 57.3455 39.2C57.7122 38.9333 58.0705 38.5833 58.4205 38.15C58.7872 37.7 59.1372 37.1917 59.4705 36.625C59.8038 36.0417 60.1122 35.4417 60.3955 34.825C60.6788 34.1917 60.9288 33.5667 61.1455 32.95C61.3788 32.3333 61.5538 31.7667 61.6705 31.25C61.8038 30.45 61.9455 29.9083 62.0955 29.625C62.2755 29.3011 62.5652 28.8855 62.5698 28.515C62.5703 28.4754 62.5705 28.4371 62.5705 28.4C62.5705 28.1667 62.5955 27.975 62.6455 27.825C62.6955 27.6583 62.7705 27.5417 62.8705 27.475C62.9872 27.3917 63.1622 27.35 63.3955 27.35C63.6955 27.35 63.8455 27.6417 63.8455 28.225C63.8455 28.325 63.8455 28.4083 63.8455 28.475C63.8455 28.5417 63.8372 28.6417 63.8205 28.775C63.8038 28.9083 63.7872 29.0833 63.7705 29.3C63.7538 29.5167 63.7205 29.825 63.6705 30.225C63.5705 31.4917 63.4788 32.6 63.3955 33.55C63.3122 34.4833 63.2372 35.3167 63.1705 36.05C63.1038 36.7667 63.0455 37.4083 62.9955 37.975C62.9455 38.525 62.8955 39.0417 62.8455 39.525C62.7955 39.9917 62.7455 40.4583 62.6955 40.925C62.6622 41.375 62.6205 41.8667 62.5705 42.4Z" fill="#A947FF"/>
<path d="M77.6637 44.05C77.6637 44.25 77.5803 44.4833 77.4137 44.75C77.247 45 77.0803 45.125 76.9137 45.125C76.6303 45.125 76.4137 44.95 76.2637 44.6C76.1137 44.25 76.0387 43.8417 76.0387 43.375C76.0387 42.975 76.0637 41.775 76.1137 39.775L76.1387 38.825C76.1387 38.3493 75.6192 38.3715 75.3717 38.7778C74.7962 39.7224 74.2518 40.5631 73.7387 41.3C73.0887 42.2333 72.2637 43.1167 71.2637 43.95C70.2637 44.7667 69.2137 45.175 68.1137 45.175C67.5803 45.175 67.1637 45.0083 66.8637 44.675C66.5803 44.3417 66.4387 43.9083 66.4387 43.375C66.4387 42.7083 66.7387 41.8 67.3387 40.65C67.9387 39.4833 68.7053 38.3083 69.6387 37.125C70.572 35.925 71.5053 34.9417 72.4387 34.175C73.0553 33.675 73.547 33.3417 73.9137 33.175C74.2803 32.9917 74.6053 32.9 74.8887 32.9C75.1553 32.9 75.4303 32.9833 75.7137 33.15C75.997 33.3167 76.2387 33.55 76.4387 33.85C76.6387 34.15 76.7387 34.4917 76.7387 34.875C76.7387 35.2563 76.6615 35.624 76.5072 35.978C76.4479 36.1141 76.5738 36.2735 76.7162 36.2316C76.7311 36.2272 76.7466 36.2246 76.7621 36.2263C76.9312 36.2449 77.0318 36.4695 77.0637 36.9C77.0803 37.1667 77.097 37.7083 77.1137 38.525C77.147 39.3417 77.172 40.0167 77.1887 40.55C77.2053 41.1 77.222 41.6333 77.2387 42.15C77.2553 42.6667 77.272 43.075 77.2887 43.375C77.3053 43.4917 77.372 43.6167 77.4887 43.75C77.6053 43.8667 77.6637 43.9667 77.6637 44.05ZM75.4096 37.1581C75.4623 37.0696 75.5088 36.9773 75.5434 36.8802C75.7069 36.4209 75.7887 35.9275 75.7887 35.4C75.7887 35.05 75.6803 34.75 75.4637 34.5C75.2637 34.2333 74.9887 34.1 74.6387 34.1C74.222 34.1 73.6887 34.3833 73.0387 34.95C72.2887 35.5833 71.497 36.4333 70.6637 37.5C69.8303 38.55 69.1387 39.5917 68.5887 40.625C68.0387 41.6583 67.7637 42.475 67.7637 43.075C67.7637 43.575 67.997 43.825 68.4637 43.825C69.3637 43.825 70.2303 43.4917 71.0637 42.825C71.897 42.1583 72.6387 41.3667 73.2887 40.45C73.9333 39.5475 74.6403 38.4502 75.4096 37.1581Z" fill="#A947FF"/>
<path d="M86.2211 34.45C85.7685 34.5215 85.4483 34.9062 85.4345 35.3642C85.4256 35.66 85.4211 35.9802 85.4211 36.325C85.4378 36.975 85.4544 37.6333 85.4711 38.3C85.5044 38.95 85.5378 39.575 85.5711 40.175C85.6044 40.7583 85.6378 41.225 85.6711 41.575C85.7378 42.5417 85.8544 43.2833 86.0211 43.8C86.1109 44.0785 86.179 44.2916 86.2252 44.4394C86.2741 44.5954 86.3135 44.7708 86.2201 44.9051C86.166 44.9828 86.083 45.0561 85.9711 45.125C85.7711 45.275 85.5794 45.35 85.3961 45.35C85.1961 45.35 85.0211 45.0333 84.8711 44.4C84.7378 43.7667 84.6211 42.95 84.5211 41.95C84.4378 40.9333 84.3711 39.8 84.3211 38.55C84.3 37.7577 84.2855 36.9653 84.2778 36.173C84.2708 35.4543 83.6259 34.909 82.9211 35.05C82.4378 35.1333 81.9711 35.225 81.5211 35.325C81.0878 35.4083 80.7128 35.4833 80.3961 35.55C80.0794 35.6 79.8878 35.625 79.8211 35.625C79.6211 35.625 79.4294 35.5667 79.2461 35.45C79.0794 35.3333 78.9961 35.175 78.9961 34.975C78.9961 34.8083 79.0294 34.7 79.0961 34.65C79.1794 34.5833 79.2961 34.5417 79.4461 34.525C79.6128 34.5083 79.8294 34.4917 80.0961 34.475C80.3628 34.4583 80.6878 34.4083 81.0711 34.325C81.5878 34.2083 82.0211 34.1167 82.3711 34.05C82.7378 33.9833 83.0461 33.9333 83.2961 33.9C83.5461 33.85 83.7461 33.8167 83.8961 33.8C84.1297 33.7481 84.2933 33.5523 84.3513 33.3201C84.4204 33.0429 84.502 32.8278 84.5961 32.675C84.7461 32.4417 84.8878 32.325 85.0211 32.325C85.1709 32.325 85.2787 32.4486 85.3443 32.6959C85.4525 33.1035 85.8037 33.4346 86.2211 33.375C86.5711 33.3083 86.9294 33.2417 87.2961 33.175C87.6794 33.1083 88.0378 33.0417 88.3711 32.975C88.7211 32.8917 88.9878 32.825 89.1711 32.775C89.2378 32.7583 89.2961 32.7167 89.3461 32.65C89.4128 32.5667 89.4711 32.4917 89.5211 32.425C89.5711 32.3417 89.6128 32.275 89.6461 32.225C89.6961 32.1583 89.7461 32.125 89.7961 32.125C89.9794 32.125 90.1628 32.2333 90.3461 32.45C90.5461 32.65 90.6461 32.8583 90.6461 33.075C90.6461 33.3583 90.5128 33.55 90.2461 33.65C89.9961 33.7333 89.6711 33.8167 89.2711 33.9C89.0211 33.95 88.7128 34.0083 88.3461 34.075C87.9961 34.125 87.6378 34.1833 87.2711 34.25C86.9044 34.3167 86.5544 34.3833 86.2211 34.45Z" fill="#A947FF"/>
<path d="M93.0131 37.1C92.9798 37.1333 92.9214 37.15 92.8381 37.15C92.7548 37.15 92.6714 37.125 92.5881 37.075C92.5048 37.025 92.4631 36.9667 92.4631 36.9C92.4631 36.8333 92.5881 36.6583 92.8381 36.375C92.9577 36.2314 93.1041 36.0764 93.2772 35.91C93.6824 35.5201 93.9535 35.005 93.9806 34.4433L94.0381 33.25V32.95C94.0381 32.7333 94.1048 32.5833 94.2381 32.5C94.3881 32.4167 94.5547 32.375 94.7381 32.375C94.9714 32.375 95.1298 32.4667 95.2131 32.65C95.2964 32.8167 95.3381 33.0667 95.3381 33.4C95.3381 33.7171 95.7227 33.9348 95.9865 33.759C96.2016 33.6157 96.4271 33.4794 96.6631 33.35C97.1798 33.0667 97.6798 32.825 98.1631 32.625C98.6464 32.425 99.0881 32.275 99.4881 32.175C99.8881 32.0583 100.188 32 100.388 32C101.021 32 101.496 32.1833 101.813 32.55C102.13 32.9167 102.288 33.3417 102.288 33.825C102.288 34.375 102.196 34.8833 102.013 35.35C101.83 35.8 101.58 36.2083 101.263 36.575C100.946 36.9417 100.588 37.275 100.188 37.575C99.8555 37.8106 100.004 38.4217 100.403 38.507C101.643 38.7722 102.263 39.3616 102.263 40.275C102.263 40.8583 102.03 41.4917 101.563 42.175C101.113 42.8417 100.53 43.4667 99.8131 44.05C99.1131 44.6333 98.3214 45.1167 97.4381 45.5C96.5714 45.9 95.7214 46.1 94.8881 46.1C94.5526 46.1 94.336 46.0136 94.2382 45.8407C94.1954 45.765 94.1251 45.7 94.0381 45.7C93.7214 45.7 93.4631 45.675 93.2631 45.625C93.0798 45.5917 92.9381 45.525 92.8381 45.425C92.7381 45.325 92.6714 45.2 92.6381 45.05C92.6048 44.9167 92.5881 44.75 92.5881 44.55C92.5881 44.2667 92.6131 43.9583 92.6631 43.625C92.7298 43.2917 92.8131 42.8667 92.9131 42.35C93.0131 41.8167 93.1298 41.1667 93.2631 40.4C93.4131 39.6333 93.5631 38.6667 93.7131 37.5L93.715 37.4838C93.7598 37.0986 93.3132 36.8544 93.0131 37.1ZM94.8131 37.15C94.7298 37.9 94.6214 38.6583 94.4881 39.425C94.3714 40.1917 94.2464 40.9083 94.1131 41.575C93.9964 42.2417 93.8964 42.825 93.8131 43.325C93.7298 43.825 93.6881 44.1917 93.6881 44.425C93.6881 44.7083 93.7714 44.8917 93.9381 44.975C94.2354 45.0939 94.5596 44.9627 94.7652 44.7173C94.918 44.5349 95.059 44.3791 95.1881 44.25C95.4214 44.0333 95.5964 43.925 95.7131 43.925C95.7964 43.925 95.8381 43.95 95.8381 44C95.8381 44.0667 95.7964 44.15 95.7131 44.25C95.6298 44.3333 95.5881 44.4 95.5881 44.45C95.5881 44.5 95.6381 44.575 95.7381 44.675C95.8381 44.7583 96.0048 44.8 96.2381 44.8C96.3548 44.8 96.5548 44.7583 96.8381 44.675C97.3548 44.525 97.8714 44.3 98.3881 44C98.9048 43.7 99.3714 43.3667 99.7881 43C100.205 42.6333 100.538 42.2583 100.788 41.875C101.055 41.475 101.188 41.1 101.188 40.75C101.188 40.45 101.113 40.2 100.963 40C100.83 39.8 100.646 39.6417 100.413 39.525C100.18 39.4083 99.9131 39.325 99.6131 39.275C99.3298 39.225 99.0298 39.2 98.7131 39.2C98.2298 39.2 97.7631 39.2417 97.3131 39.325C96.8798 39.4083 96.5714 39.4667 96.3881 39.5C96.1048 39.5833 95.8714 39.6417 95.6881 39.675C95.5048 39.6917 95.3464 39.7 95.2131 39.7C95.1263 39.7 95.0536 39.6937 94.995 39.6812C94.8777 39.656 94.801 39.5467 94.7904 39.4272C94.7888 39.4102 94.7881 39.3928 94.7881 39.375C94.7881 39.2583 94.8798 39.15 95.0631 39.05C95.2464 38.9333 95.4464 38.8333 95.6631 38.75C95.8964 38.6667 96.1131 38.6 96.3131 38.55C96.3345 38.5429 96.3549 38.5361 96.3742 38.5297C96.5481 38.4723 96.728 38.4265 96.9022 38.3703C97.3475 38.2267 97.7928 38.0366 98.2381 37.8C98.7881 37.5 99.2798 37.1667 99.7131 36.8C100.146 36.4167 100.496 36.0333 100.763 35.65C101.046 35.25 101.188 34.875 101.188 34.525C101.188 34.0917 101.046 33.7833 100.763 33.6C100.496 33.4167 100.171 33.325 99.7881 33.325C98.9714 33.325 98.1548 33.55 97.3381 34C96.777 34.3156 96.2283 34.6558 95.6918 35.0205C95.2532 35.3188 94.9751 35.7982 94.9131 36.325C94.8798 36.5917 94.8464 36.8667 94.8131 37.15Z" fill="#A947FF"/>
<path d="M115.019 38.975C115.019 39.275 114.794 39.9333 114.344 40.95C113.911 41.9667 113.244 42.9083 112.344 43.775C111.461 44.6417 110.369 45.075 109.069 45.075C108.003 45.075 107.111 44.7417 106.394 44.075C105.678 43.4083 105.319 42.3833 105.319 41C105.319 39.7 105.619 38.4167 106.219 37.15C106.819 35.8667 107.603 34.825 108.569 34.025C109.536 33.2083 110.536 32.8 111.569 32.8C112.186 32.8 112.703 32.9417 113.119 33.225C113.553 33.4917 113.769 33.8833 113.769 34.4C113.769 34.9833 113.436 35.55 112.769 36.1C112.119 36.65 111.269 37.1333 110.219 37.55C109.573 37.8065 108.914 38.0188 108.242 38.1869C107.475 38.3788 106.819 38.9411 106.727 39.7263C106.689 40.0541 106.669 40.3787 106.669 40.7C106.669 41.6667 106.894 42.4167 107.344 42.95C107.811 43.4833 108.469 43.75 109.319 43.75C110.603 43.75 111.644 43.2917 112.444 42.375C113.244 41.4583 113.911 40.425 114.444 39.275C114.478 39.2083 114.536 39.0833 114.619 38.9C114.703 38.7 114.778 38.6 114.844 38.6C114.961 38.6 115.019 38.725 115.019 38.975ZM111.269 33.825C110.636 33.825 110.028 34.0333 109.444 34.45C108.861 34.8667 108.369 35.3667 107.969 35.95C107.51 36.6482 108.11 37.3856 108.904 37.1246C109.147 37.0446 109.394 36.9531 109.644 36.85C110.494 36.5 111.203 36.1167 111.769 35.7C112.353 35.2833 112.644 34.9417 112.644 34.675C112.644 34.4083 112.503 34.2 112.219 34.05C111.953 33.9 111.636 33.825 111.269 33.825Z" fill="#A947FF"/>
<path d="M126.566 45.4C126.383 45.4 126.208 45.3 126.041 45.1C125.891 44.9 125.749 44.6417 125.616 44.325C125.499 44.0083 125.399 43.6583 125.316 43.275C125.233 42.8917 125.174 42.525 125.141 42.175C125.091 41.8083 125.058 41.2667 125.041 40.55C125.041 39.8333 125.024 38.925 124.991 37.825C124.979 37.365 124.319 37.2318 124.118 37.6456C124.109 37.6637 124.1 37.6818 124.091 37.7C123.758 38.3667 123.391 39.0417 122.991 39.725C122.608 40.4083 122.199 41.075 121.766 41.725C121.333 42.375 120.908 42.95 120.491 43.45C120.091 43.95 119.708 44.3583 119.341 44.675C118.974 44.975 118.658 45.125 118.391 45.125C117.841 45.125 117.474 44.8333 117.291 44.25C117.124 43.6667 117.041 42.7417 117.041 41.475C117.041 40.925 117.074 40.3417 117.141 39.725C117.224 39.0917 117.324 38.4667 117.441 37.85C117.558 37.2333 117.691 36.6417 117.841 36.075C118.008 35.5083 118.174 35.0083 118.341 34.575C118.524 34.125 118.699 33.775 118.866 33.525C119.049 33.2583 119.224 33.125 119.391 33.125C119.808 33.125 120.016 33.2083 120.016 33.375C120.016 33.425 119.958 33.575 119.841 33.825C119.741 34.0583 119.608 34.35 119.441 34.7C119.291 35.0333 119.133 35.4 118.966 35.8C118.816 36.2 118.691 36.5833 118.591 36.95C118.258 38.15 118.091 39.7167 118.091 41.65C118.091 42.9667 118.274 43.625 118.641 43.625C118.858 43.625 119.124 43.4917 119.441 43.225C119.758 42.9417 120.091 42.575 120.441 42.125C120.808 41.6583 121.174 41.1333 121.541 40.55C121.908 39.95 122.266 39.3417 122.616 38.725C122.966 38.1083 123.283 37.5 123.566 36.9C123.866 36.3 124.108 35.7583 124.291 35.275C124.324 35.175 124.374 35 124.441 34.75C124.508 34.4833 124.574 34.2167 124.641 33.95C124.724 33.6833 124.799 33.45 124.866 33.25C124.949 33.0333 125.016 32.925 125.066 32.925C125.399 32.925 125.633 33.0333 125.766 33.25C125.899 33.45 125.983 33.7583 126.016 34.175C126.066 34.5917 126.074 35.1 126.041 35.7C126.024 36.3 126.033 36.9833 126.066 37.75C126.099 38.7167 126.133 39.5333 126.166 40.2C126.216 40.8667 126.258 41.3917 126.291 41.775C126.341 42.2583 126.424 42.6667 126.541 43C126.658 43.3167 126.783 43.5833 126.916 43.8C127.049 44.0167 127.166 44.1833 127.266 44.3C127.366 44.4167 127.416 44.5 127.416 44.55C127.416 45.1167 127.133 45.4 126.566 45.4ZM120.993 31.1628C120.89 31.1459 120.789 31.1185 120.687 31.0932C120.455 31.0351 120.256 30.9374 120.091 30.8C119.891 30.6333 119.733 30.4417 119.616 30.225C119.499 29.9917 119.416 29.75 119.366 29.5C119.333 29.25 119.316 29.0083 119.316 28.775C119.316 28.3917 119.349 28.0917 119.416 27.875C119.483 27.6583 119.633 27.55 119.866 27.55C119.999 27.55 120.124 27.6583 120.241 27.875C120.374 28.075 120.441 28.3583 120.441 28.725C120.441 29.0917 120.499 29.375 120.616 29.575C120.749 29.775 120.908 29.925 121.091 30.025C121.274 30.1083 121.466 30.1583 121.666 30.175C121.866 30.1917 122.041 30.2 122.191 30.2C122.791 30.2 123.408 30.0917 124.041 29.875C124.691 29.6417 125.299 29.4 125.866 29.15C126.433 28.8833 126.916 28.6417 127.316 28.425C127.733 28.1917 128.008 28.075 128.141 28.075C128.224 28.075 128.291 28.125 128.341 28.225C128.391 28.325 128.416 28.4083 128.416 28.475C128.416 28.5417 128.349 28.6583 128.216 28.825C128.083 28.975 127.749 29.1833 127.216 29.45C126.016 30.05 124.933 30.4917 123.966 30.775C122.999 31.0417 122.183 31.175 121.516 31.175C121.383 31.175 121.258 31.175 121.141 31.175C121.092 31.175 121.042 31.1709 120.993 31.1628Z" fill="#A947FF"/>
</svg>
